<svg xmlns="http://www.w3.org/2000/svg" width="70" height="78" viewBox="0 0 70 78">
    <g fill="none" fill-rule="evenodd">
        <path fill="#FFF" d="M40.727.986h12.452v12.507H40.727z"/>
        <path fill="#004FAC" fill-rule="nonzero" d="M54.278 0H39.626v14.717h6.226v4.285h2.2v-4.285h6.226V0zm-2.2 12.507H41.827V2.21h10.25v10.297z"/>
        <g fill="#83D8F4">
            <path d="M61.847 49.128L57.296 61.81c-1.032 2.875 1.089 5.907 4.13 5.907h1.876c3.043 0 5.163-3.032 4.131-5.907l-4.55-12.682a.55.55 0 0 0-1.036 0zM7.279 49.128L2.727 61.81c-1.031 2.875 1.09 5.907 4.132 5.907h1.875c3.042 0 5.163-3.032 4.131-5.907l-4.55-12.682a.55.55 0 0 0-1.036 0z"/>
        </g>
        <path fill="#FFF" fill-rule="nonzero" stroke="#004FAC" stroke-width="2" d="M17.01 17.5v59.117h36.308V17.5H17.011zm25.546 7.318h5.182v5.205h-5.182v-5.205zm0 10.13h5.182v5.205h-5.182v-5.205zm0 10.13h5.182v5.206h-5.182v-5.205zm-9.874-20.26h5.182v5.205h-5.182v-5.205zm0 10.13h5.182v5.205h-5.182v-5.205zm0 10.13h5.182v5.206h-5.182v-5.205zm-9.875-20.26h5.182v5.205h-5.182v-5.205zm0 10.13h5.182v5.205h-5.182v-5.205zm0 10.13h5.182v5.206h-5.182v-5.205zm4.03 31.263v-19.29h16.87v19.29h-16.87z"/>
        <path fill="#06D6BC" d="M26.645 57.583h16.87v19.29h-16.87z"/>
        <g fill="#004FAC">
            <path d="M48.473 3.553v2.582h-3.04v-2.82h-2.201v7.85h2.2v-2.82h3.04v3.057h2.2v-7.85z"/>
            <path fill-rule="nonzero" d="M69.913 75.768h-6.448v-7.043a6.06 6.06 0 0 0 3.932-2.53 6.126 6.126 0 0 0 .754-5.646l-4.156-11.58a1.717 1.717 0 0 0-1.63-1.15c-.74 0-1.38.452-1.631 1.15l-4.156 11.58a6.126 6.126 0 0 0 .754 5.646 6.062 6.062 0 0 0 3.932 2.53v7.043H44.808v-19.29h-19.07v19.29H8.896v-7.043a6.06 6.06 0 0 0 3.932-2.53 6.127 6.127 0 0 0 .754-5.646L9.427 48.97a1.717 1.717 0 0 0-1.63-1.15c-.74 0-1.38.452-1.631 1.15L2.01 60.55a6.126 6.126 0 0 0 .754 5.646 6.061 6.061 0 0 0 3.932 2.53v7.043H.066v2.21H69.914v-2.21zm-10.78-10.843a3.935 3.935 0 0 1-.484-3.626l3.716-10.355L66.08 61.3a3.935 3.935 0 0 1-.484 3.626 3.897 3.897 0 0 1-3.232 1.687 3.897 3.897 0 0 1-3.233-1.687zm-54.569 0a3.935 3.935 0 0 1-.483-3.626l3.715-10.355L11.513 61.3a3.935 3.935 0 0 1-.484 3.626 3.897 3.897 0 0 1-3.233 1.687 3.898 3.898 0 0 1-3.232-1.687zm38.044 10.843h-6.343v-17.08h6.343v17.08zm-14.67-17.08h6.126v17.08h-6.126v-17.08z"/>
        </g>
    </g>
</svg>
