<?xml version="1.0" encoding="utf-8"?>
<!-- Generator: Adobe Illustrator 25.4.1, SVG Export Plug-In . SVG Version: 6.00 Build 0)  -->
<svg version="1.1" id="Layer_1" xmlns="http://www.w3.org/2000/svg" xmlns:xlink="http://www.w3.org/1999/xlink" x="0px" y="0px"
	 width="70px" height="70px" viewBox="0 0 70 70" style="enable-background:new 0 0 70 70;" xml:space="preserve">
<style type="text/css">
	.st0{fill:#FFFFFF;}
	.st1{fill:#004FAC;}
	.st2{opacity:0.5;}
	.st3{fill:#2878E3;}
	.st4{fill:#F0FFFF;}
</style>
<g>
	<g>
		<g>
			<rect x="8.4" y="6" class="st0" width="55.5" height="14.5"/>
		</g>
		<g>
			<circle class="st0" cx="8.4" cy="13.3" r="7.2"/>
		</g>
		<g>
			<polygon class="st1" points="65.2,20.5 62.8,20.5 62.8,7.2 8.4,7.2 8.4,4.8 65.2,4.8 			"/>
		</g>
		<g>
			<rect x="7.2" y="12.1" class="st1" width="50.7" height="2.4"/>
		</g>
	</g>
	<g>
		<path class="st1" d="M65.2,32.6h-2.4V21.7H8.4c-4.7,0-8.4-3.8-8.4-8.4s3.8-8.4,8.4-8.4v2.4c-3.3,0-6,2.7-6,6s2.7,6,6,6h56.7
			L65.2,32.6L65.2,32.6z"/>
	</g>
	<g>
		<path class="st1" d="M65.2,65.2H8.4c-4.7,0-8.4-3.8-8.4-8.4V13.3h2.4v43.4c0,3.3,2.7,6,6,6h54.3V51.9h2.4L65.2,65.2L65.2,65.2z"/>
	</g>
	<g>
		<g class="st2">
			<path class="st3" d="M43.4,51.9c-5.3,0-9.7-4.3-9.7-9.7s4.3-9.7,9.7-9.7h25.3v19.3H43.4V51.9z"/>
		</g>
		<g>
			<circle class="st4" cx="43.4" cy="42.2" r="4.8"/>
		</g>
		<g>
			<path class="st1" d="M43.4,48.3c-3.3,0-6-2.7-6-6s2.7-6,6-6s6,2.7,6,6S46.8,48.3,43.4,48.3z M43.4,38.6c-2,0-3.6,1.6-3.6,3.6
				s1.6,3.6,3.6,3.6s3.6-1.6,3.6-3.6C47.1,40.2,45.4,38.6,43.4,38.6z"/>
		</g>
		<g>
			<path class="st1" d="M70,53.1H43.4c-6,0-10.9-4.9-10.9-10.9s4.9-10.9,10.9-10.9H70V53.1z M43.4,33.8c-4.7,0-8.4,3.8-8.4,8.4
				s3.8,8.4,8.4,8.4h24.1V33.8H43.4z"/>
		</g>
	</g>
	<g>
		<g>
			<rect x="55.5" y="25.3" class="st3" width="2.4" height="2.4"/>
		</g>
		<g>
			<rect x="50.7" y="25.3" class="st3" width="2.4" height="2.4"/>
		</g>
		<g>
			<rect x="45.9" y="25.3" class="st3" width="2.4" height="2.4"/>
		</g>
		<g>
			<rect x="41" y="25.3" class="st3" width="2.4" height="2.4"/>
		</g>
		<g>
			<rect x="36.2" y="25.3" class="st3" width="2.4" height="2.4"/>
		</g>
		<g>
			<rect x="31.4" y="25.3" class="st3" width="2.4" height="2.4"/>
		</g>
		<g>
			<rect x="26.6" y="25.3" class="st3" width="2.4" height="2.4"/>
		</g>
		<g>
			<rect x="21.7" y="25.3" class="st3" width="2.4" height="2.4"/>
		</g>
		<g>
			<rect x="16.9" y="25.3" class="st3" width="2.4" height="2.4"/>
		</g>
		<g>
			<rect x="12.1" y="25.3" class="st3" width="2.4" height="2.4"/>
		</g>
		<g>
			<rect x="7.2" y="25.3" class="st3" width="2.4" height="2.4"/>
		</g>
		<g>
			<rect x="55.5" y="56.7" class="st3" width="2.4" height="2.4"/>
		</g>
		<g>
			<rect x="50.7" y="56.7" class="st3" width="2.4" height="2.4"/>
		</g>
		<g>
			<rect x="45.9" y="56.7" class="st3" width="2.4" height="2.4"/>
		</g>
		<g>
			<rect x="41" y="56.7" class="st3" width="2.4" height="2.4"/>
		</g>
		<g>
			<rect x="36.2" y="56.7" class="st3" width="2.4" height="2.4"/>
		</g>
		<g>
			<rect x="31.4" y="56.7" class="st3" width="2.4" height="2.4"/>
		</g>
		<g>
			<rect x="26.6" y="56.7" class="st3" width="2.4" height="2.4"/>
		</g>
		<g>
			<rect x="21.7" y="56.7" class="st3" width="2.4" height="2.4"/>
		</g>
		<g>
			<rect x="16.9" y="56.7" class="st3" width="2.4" height="2.4"/>
		</g>
		<g>
			<rect x="12.1" y="56.7" class="st3" width="2.4" height="2.4"/>
		</g>
		<g>
			<rect x="7.2" y="56.7" class="st3" width="2.4" height="2.4"/>
		</g>
	</g>
	<g>
		<polygon class="st1" points="70,32.6 67.6,32.6 67.6,27.8 65.2,27.8 65.2,25.3 70,25.3 		"/>
	</g>
	<g>
		<rect x="65.2" y="27.8" class="st0" width="2.4" height="3.6"/>
	</g>
</g>
</svg>
