<?xml version="1.0" encoding="utf-8"?>
<!-- Generator: Adobe Illustrator 25.4.1, SVG Export Plug-In . SVG Version: 6.00 Build 0)  -->
<svg version="1.1" id="Layer_1" xmlns="http://www.w3.org/2000/svg" xmlns:xlink="http://www.w3.org/1999/xlink" x="0px" y="0px"
	 width="80px" height="68px" viewBox="0 0 80 68" style="enable-background:new 0 0 80 68;" xml:space="preserve">
<style type="text/css">
	.st0{fill-rule:evenodd;clip-rule:evenodd;fill:#FFFFFE;}
	.st1{opacity:0.5;fill-rule:evenodd;clip-rule:evenodd;fill:#2878E3;}
	.st2{fill-rule:evenodd;clip-rule:evenodd;fill:#004FAC;}
</style>
<g>
	<path class="st0" d="M1.2,66.7h77.5V12.8H1.2V66.7z"/>
	<path class="st1" d="M62.9,47.5h7.8v-5.7h-7.8V47.5z M9.6,47.5h7.8v-5.7H9.6V47.5z"/>
	<path class="st1" d="M44.5,48.8v5.6h-9.1v-8.2h-8.2v-9.1h8.2v-8.2h9.1v8.2h8.2v9.1h-8.2V48.8"/>
	<path class="st2" d="M57.8,13.8h-2.5V2.4H24.6v11.3h-2.5V0h35.7L57.8,13.8"/>
	<path class="st2" d="M28.4,38.5h8.2v-8.2h6.7v8.2h8.2v6.6h-8.2v8.2h-6.7v-8.2h-8.2C28.4,45.1,28.4,38.4,28.4,38.5z M0,12.1v55.8
		h9.6v-2.4H2.4V26.1L5.3,43H26v4.5h8.2v8.2h11.5v-8.2H54V36h-8.2v-8.2H34.2V36H26v4.5H7.4L2.7,14.5h74.6l-4.8,26.1H57.5V43h17.1
		l3-17v39.5H15v2.4h65V12.1L0,12.1L0,12.1z"/>
</g>
</svg>
