<?xml version="1.0" encoding="utf-8"?>
<!-- Generator: Adobe Illustrator 25.4.1, SVG Export Plug-In . SVG Version: 6.00 Build 0)  -->
<svg version="1.1" id="Layer_1" xmlns="http://www.w3.org/2000/svg" xmlns:xlink="http://www.w3.org/1999/xlink" x="0px" y="0px"
	 width="70px" height="70px" viewBox="0 0 70 70" style="enable-background:new 0 0 70 70;" xml:space="preserve">
<style type="text/css">
	.st0{opacity:0.5;fill:#2878E3;}
	.st1{fill:#004FAC;}
	.st2{fill:#FFFFFF;}
</style>
<path class="st0" d="M35.5,4.2c0,0,14.2,19.6,13.8,25.2s-17.6,16.1-27.3,2C22,31.4,22.2,16.2,35.5,4.2z"/>
<g>
	<g>
		<path class="st1" d="M35,41.2c-8.7,0-15.8-6.1-15.8-13.5c0-7,13.1-23.4,14.6-25.2L35,0.9l1.2,1.5c1.5,1.8,14.6,18.3,14.6,25.2
			C50.8,35.2,43.7,41.2,35,41.2z M35,5.9c-4.4,5.7-12.7,17.3-12.7,21.8c0,5.8,5.7,10.4,12.7,10.4s12.7-4.7,12.7-10.4
			C47.7,23.2,39.4,11.6,35,5.9z"/>
		<g>
			<path class="st2" d="M27.9,24.2c-0.1,0-0.3,0-0.4-0.1c-0.7-0.2-1-0.8-0.8-1.4c1.6-4.1,3.7-7.5,5.6-10.4l0.4-0.6
				c0.3-0.5,1.1-0.7,1.7-0.4c0.6,0.3,0.9,0.9,0.5,1.5l-0.4,0.6c-1.8,2.9-3.9,6.1-5.4,10.1C29,23.9,28.5,24.2,27.9,24.2z"/>
			<path class="st2" d="M26.5,30c-0.1,0-0.2,0-0.3,0c-0.7-0.1-1.1-0.7-1-1.3c0.2-0.7,0.4-1.5,0.8-2.2c0.3-0.5,1-0.8,1.7-0.6
				c0.6,0.2,1,0.9,0.7,1.4s-0.5,1.2-0.6,1.8C27.6,29.6,27.1,30,26.5,30z"/>
		</g>
	</g>
	<g>
		<g>
			<path class="st1" d="M31.7,68.3h-3.1V57c0-0.9-0.2-1.7-0.6-2.5s-1-1.4-1.7-1.9l-13-9v-6.1c0-0.2-0.1-0.5-0.3-0.7
				s-0.4-0.3-0.7-0.3H9.2l-0.3,0.3V46H5.8v-9.2c0-0.9,0.4-1.8,1-2.4c0.6-0.6,1.5-1,2.4-1h3.2c1.1,0,2.1,0.4,2.9,1.2
				c0.8,0.8,1.2,1.8,1.2,2.9v4.4L28.1,50c1.1,0.8,2.1,1.8,2.7,3.1c0.6,1.2,1,2.6,1,3.9v11.3H31.7z"/>
			<path class="st1" d="M18.4,69.1h-3.1v-7.6L3.1,53.1c-0.9-0.6-1.7-1.4-2.3-2.4S0,48.6,0,47.5V28.9c0-1.5,0.6-2.9,1.7-4
				s2.5-1.7,4-1.7h2.8c1.3,0,2.5,0.5,3.3,1.4c0.9,0.9,1.4,2.1,1.4,3.3v7h-3.1v-7c0-0.4-0.2-0.8-0.5-1.1c-0.3-0.3-0.7-0.5-1.1-0.5
				H5.7c-0.7,0-1.3,0.3-1.8,0.8s-0.7,1.1-0.7,1.8v18.5c0,0.6,0.1,1.2,0.5,1.7c0.3,0.5,0.7,1,1.2,1.3l13.6,9.3v9.4H18.4z"/>
		</g>
		<g>
			<path class="st1" d="M41.4,68.3h-3.1V57c0-1.4,0.3-2.7,1-3.9c0.6-1.2,1.6-2.3,2.7-3.1l11.6-8.1v-4.4c0-1.1,0.4-2.1,1.2-2.9
				c0.8-0.8,1.8-1.2,2.9-1.2h3.2c0.9,0,1.8,0.4,2.4,1c0.6,0.6,1,1.5,1,2.4V46h-3.1v-9.2l-0.3-0.3h-3.2c-0.2,0-0.5,0.1-0.7,0.3
				s-0.3,0.4-0.3,0.7v6.1l-13,9c-0.7,0.5-1.3,1.2-1.7,1.9c-0.4,0.8-0.6,1.6-0.6,2.5L41.4,68.3L41.4,68.3z"/>
			<path class="st1" d="M54.7,69.1h-3.1v-9.2l13.6-9.3c0.6-0.4,1-0.8,1.3-1.3s0.5-1.1,0.5-1.7V28.9c0-0.7-0.3-1.3-0.8-1.8
				s-1.1-0.8-1.8-0.8h-2.8c-0.4,0-0.8,0.2-1.1,0.5S60,27.5,60,27.9v7h-3.1v-7c0-1.3,0.5-2.4,1.4-3.3s2.1-1.4,3.3-1.4h2.8
				c1.5,0,2.9,0.6,4,1.7s1.7,2.5,1.7,4v18.5c0,1.1-0.3,2.3-0.8,3.2c-0.6,1-1.4,1.8-2.3,2.4l-12.2,8.3L54.7,69.1L54.7,69.1z"/>
		</g>
	</g>
</g>
</svg>
