<?xml version="1.0" encoding="utf-8"?>
<!-- Generator: Adobe Illustrator 25.4.1, SVG Export Plug-In . SVG Version: 6.00 Build 0)  -->
<svg version="1.1" id="Layer_1" xmlns="http://www.w3.org/2000/svg" xmlns:xlink="http://www.w3.org/1999/xlink" x="0px" y="0px"
	 width="80px" height="80px" viewBox="0 0 80 80" style="enable-background:new 0 0 80 80;" xml:space="preserve">
<style type="text/css">
	.st0{fill-rule:evenodd;clip-rule:evenodd;fill:#FFFFFF;}
	.st1{opacity:0.5;fill-rule:evenodd;clip-rule:evenodd;fill:#2878E3;}
	.st2{fill-rule:evenodd;clip-rule:evenodd;fill:#004FAC;}
	.st3{fill:#004FAC;}
</style>
<g>
	<path class="st0" d="M53.6,63.7v-45l-10.2,4.1c-1.3,0.5-2.3,2.1-2.3,3.4v37.5C41.2,63.7,53.6,63.7,53.6,63.7z M25.4,32.6l-0.9-2.8
		c-0.4-1.3-1.8-1.9-3-1.3L20,29.2v-5.5c0-1.4-1.1-2.5-2.5-2.5H15c-1.4,0-2.5,1.1-2.5,2.5v9l-5.2,2.4c-1.2,0.6-2,2.1-1.7,3.5l0,0.1
		c0.3,1.3,1.6,2,2.8,1.7c0.1,0,0.1,0,0.2,0l3.9-1.2v0c0.2,1.1,1.3,2,2.4,2h2.5c1.4,0,2.5-1.1,2.5-2.5V37l3.9-1.2
		C25.1,35.3,25.8,34,25.4,32.6C25.4,32.7,25.4,32.6,25.4,32.6L25.4,32.6z"/>
	<path class="st1" d="M20,38.7c0,1.4-1.1,2.5-2.5,2.5H15c-1.4,0-2.5-1.1-2.5-2.5v-15c0-1.4,1.1-2.5,2.5-2.5h2.5
		c1.4,0,2.5,1.1,2.5,2.5C20,23.7,20,38.7,20,38.7z"/>
	<path class="st0" d="M66.1,1.2L36.2,3.7C35.3,4,34.6,4.4,34,5l0,0H15c-1.4,0-2.5,1.1-2.5,2.5V15c0,1.4,1.1,2.5,2.5,2.5h2.5
		c1.4,0,2.5-1.1,2.5-2.5v-1.2c0-1.4,1.1-2.5,2.5-2.5h8.9c-0.1,0.8-0.2,1.7-0.2,2.5h41.2V7.5C72.4,4,69.6,1.2,66.1,1.2z"/>
	<path class="st1" d="M62.4,71.2h10v-5c0-1.4-1.1-2.5-2.5-2.5H27.4c-1.4,0-2.5,1.1-2.5,2.5v10c0,1.4,1.1,2.5,2.5,2.5h29.9L62.4,71.2
		L62.4,71.2z"/>
	<ellipse class="st1" cx="67.4" cy="75" rx="3.7" ry="3.8"/>
	<path class="st1" d="M51.2,19.7v-6h-7.5v9L51.2,19.7z"/>
	<path class="st1" d="M64.9,51.2h-2.5c-1.4,0-2.5,1.1-2.5,2.5v2.5c0,1.4,1.1,2.5,2.5,2.5h2.5c1.4,0,2.5-1.1,2.5-2.5v-2.5
		C67.4,52.4,66.2,51.2,64.9,51.2z"/>
	<path class="st1" d="M15,5c-1.4,0-2.5,1.1-2.5,2.5V15c0,1.4,1.1,2.5,2.5,2.5h2.5c1.4,0,2.5-1.1,2.5-2.5v-1.2c0-1.4,1.1-2.5,2.5-2.5
		h8.9c0.3-2,1-4.6,2.6-6.2C34,5,15,5,15,5z"/>
	<path class="st2" d="M73.6,43.7c0,0.7,0.5,1.3,1.2,1.3c0.7,0,1.3-0.5,1.3-1.2c0,0,0,0,0-0.1c0-10.9-7.8-20.2-18.5-22.1
		c-0.7-0.1-1.3,0.3-1.4,1c0,0,0,0,0,0c-0.1,0.7,0.3,1.3,1,1.5C66.7,25.8,73.6,34,73.6,43.7z M18.7,7.5h-2.5c-0.7,0-1.2,0.6-1.2,1.2
		s0.6,1.2,1.2,1.2h2.5c0.7,0,1.2-0.6,1.2-1.2S19.4,7.5,18.7,7.5z M49.9,11.2c0.3,0,0.6-0.1,0.9-0.4c0.2-0.2,0.4-0.6,0.4-0.9
		c0-0.3-0.1-0.7-0.4-0.9c-0.5-0.5-1.3-0.5-1.8,0c-0.2,0.2-0.4,0.6-0.4,0.9c0,0.3,0.1,0.6,0.4,0.9C49.3,11.1,49.6,11.2,49.9,11.2z"/>
	<path class="st3" d="M68.6,53.7c0-2.1-1.7-3.7-3.7-3.8h-2.5c-2.1,0-3.7,1.7-3.7,3.8v2.5c0,2.1,1.7,3.7,3.7,3.8h2.5
		c2.1,0,3.7-1.7,3.7-3.8V53.7z M66.1,56.2c0,0.7-0.6,1.2-1.2,1.2h-2.5c-0.7,0-1.2-0.6-1.2-1.2v-2.5c0-0.7,0.6-1.2,1.2-1.2h2.5
		c0.7,0,1.2,0.6,1.2,1.2V56.2z"/>
	<path class="st2" d="M49.3,23.9l-5,2.5c-0.6,0.3-0.8,1.1-0.5,1.7c0.3,0.6,1,0.8,1.6,0.5l5-2.5c0.6-0.3,0.8-1.1,0.5-1.7
		C50.6,23.9,49.9,23.6,49.3,23.9z"/>
	<path class="st3" d="M71.5,62.9c5.3-5,8.3-11.8,8.3-19.1c0-14.5-11.8-26.2-26.2-26.2c-0.2,0-0.3,0-0.5,0.1l0,0v0l-0.8,0.3V15h20
		c0.7,0,1.2-0.6,1.2-1.2V7.5C73.6,3.4,70.3,0,66,0h0L36.1,2.5c-0.1,0-0.1,0-0.2,0c-0.9,0.2-1.7,0.6-2.3,1.2H15
		c-2.1,0-3.7,1.7-3.7,3.8V15c0,2.1,1.7,3.7,3.7,3.7V20c-2.1,0-3.7,1.7-3.7,3.8V32l-4.5,2.1c-1.4,0.7-2.3,2.1-2.4,3.6l-3.5,1.4
		c-0.6,0.3-0.9,1-0.7,1.6c0.3,0.6,1,0.9,1.6,0.7l3.1-1.2c0.9,1.4,2.6,2.1,4.1,1.5l2.9-0.9c0.7,1.1,1.9,1.7,3.1,1.7h2.5
		c2.1,0,3.7-1.7,3.7-3.8v-0.9l3-0.9c0.9-0.3,1.7-1,2.2-1.8c0.5-0.9,0.5-1.9,0.2-2.9l-0.9-2.8c-0.5-1.5-1.8-2.4-3.3-2.4
		c-0.4,0-0.8,0.1-1.2,0.2v-3.6c0-2.1-1.7-3.7-3.7-3.8v-1.2c2.1,0,3.7-1.7,3.7-3.8v-1.2c0-0.7,0.6-1.2,1.2-1.2H30
		c0,0.4-0.1,0.8-0.1,1.2c0,0.7,0.6,1.3,1.2,1.3c0,0,0,0,0,0h11.2v7c-1.4,0.9-2.5,2.6-2.5,4.3v36.2H27.4c-2.1,0-3.7,1.7-3.7,3.8v10
		c0,2.1,1.7,3.7,3.7,3.8h29.9c0.4,0,0.8-0.2,1-0.6l4.6-6.9h0c-0.4,0.8-0.7,1.6-0.7,2.5c0,2.8,2.2,5,5,5c2.8,0,5-2.2,5-5
		c0-0.9-0.3-1.8-0.7-2.5h0.7c0.7,0,1.2-0.6,1.2-1.2v-5C73.6,64.8,72.8,63.5,71.5,62.9z M54.9,20.1c12.5,0.7,22.5,11,22.5,23.7
		c0,7.4-3.4,14.2-9.2,18.8H54.9V20.1L54.9,20.1z M8.2,39.3c-0.6,0.2-1.2-0.1-1.4-0.7c0,0,0-0.1,0-0.1l0-0.1c-0.2-0.8,0.3-1.7,1-2
		l3.4-1.6v3.7L8.2,39.3L8.2,39.3z M22,29.7c0.6-0.3,1.1,0,1.3,0.6l0.9,2.8c0.1,0.3,0.1,0.6-0.1,0.9c-0.1,0.3-0.4,0.5-0.7,0.6
		l-2.2,0.7V30C21.2,30,22,29.7,22,29.7z M18.7,23.7v15c0,0.7-0.6,1.2-1.2,1.2H15c-0.6,0-1.1-0.4-1.2-1c0,0,0-0.1-0.1-0.1
		c0,0,0-0.1,0-0.1v-15c0-0.7,0.6-1.2,1.2-1.2h2.5C18.2,22.5,18.7,23.1,18.7,23.7z M32.5,12.5c0-0.3,0.1-0.6,0.1-0.9
		c0-0.1,0-0.2,0-0.3c0-0.7-0.6-1.2-1.2-1.2c-0.1,0-0.1,0-0.2,0h-8.8c-2.1,0-3.7,1.7-3.7,3.8V15c0,0.7-0.6,1.3-1.2,1.3H15
		c-0.7,0-1.2-0.6-1.2-1.2V7.5c0-0.7,0.6-1.2,1.2-1.2l19,0c0.3,0,0.6-0.1,0.9-0.4c0.5-0.5,1-0.8,1.5-0.9l29.7-2.5c2.8,0,5,2.2,5,5
		v1.3H53.6c-0.7,0-1.2,0.6-1.2,1.2s0.6,1.2,1.2,1.2h17.5v1.2H32.5z M49.9,15v3.9l-5,2V15H49.9z M42.4,26.2c0-0.9,0.7-1.9,1.5-2.3
		l0.2-0.1c0,0,0,0,0,0l7.5-3l0.8-0.3v41.9h-10C42.4,62.5,42.4,26.2,42.4,26.2z M67.4,77.5c-1.4,0-2.5-1.1-2.5-2.5s1.1-2.5,2.5-2.5
		s2.5,1.1,2.5,2.5S68.7,77.5,67.4,77.5z M71.1,70h-8.7c-0.4,0-0.8,0.2-1,0.6l-4.6,6.9H27.4c-0.7,0-1.2-0.6-1.2-1.2V70h12.5
		c0.7,0,1.2-0.6,1.2-1.2s-0.6-1.2-1.2-1.2H26.2v-1.2c0-0.7,0.6-1.2,1.2-1.2h42.4c0.7,0,1.2,0.6,1.2,1.2V70z"/>
	<path class="st2" d="M42.8,67.9c-0.2,0.2-0.4,0.6-0.4,0.9c0,0.3,0.1,0.7,0.4,0.9c0.2,0.2,0.6,0.4,0.9,0.4c0.3,0,0.6-0.1,0.9-0.4
		c0.2-0.2,0.4-0.6,0.4-0.9c0-0.3-0.1-0.7-0.4-0.9C44.1,67.4,43.2,67.4,42.8,67.9L42.8,67.9z M15.3,26.6c-0.2,0.2-0.4,0.6-0.4,0.9
		c0,0.3,0.1,0.6,0.4,0.9c0.2,0.2,0.5,0.4,0.9,0.4c0.3,0,0.6-0.1,0.9-0.4c0.2-0.2,0.4-0.6,0.4-0.9c0-0.3-0.1-0.7-0.4-0.9
		C16.6,26.1,15.8,26.1,15.3,26.6z M15.3,32.9c-0.2,0.2-0.4,0.6-0.4,0.9c0,0.3,0.1,0.7,0.4,0.9c0.2,0.2,0.5,0.4,0.9,0.4
		c0.3,0,0.6-0.1,0.9-0.4c0.2-0.2,0.4-0.6,0.4-0.9s-0.1-0.7-0.4-0.9C16.6,32.4,15.8,32.4,15.3,32.9z"/>
</g>
</svg>
