<?xml version="1.0" encoding="utf-8"?>
<!-- Generator: Adobe Illustrator 25.4.1, SVG Export Plug-In . SVG Version: 6.00 Build 0)  -->
<svg version="1.1" id="Layer_1" xmlns="http://www.w3.org/2000/svg" xmlns:xlink="http://www.w3.org/1999/xlink" x="0px" y="0px"
	 width="70px" height="70px" viewBox="0 0 70 70" style="enable-background:new 0 0 70 70;" xml:space="preserve">
<style type="text/css">
	.st0{fill:#004FAC;}
	.st1{opacity:0.5;fill-rule:evenodd;clip-rule:evenodd;fill:#2878E3;}
	.st2{fill-rule:evenodd;clip-rule:evenodd;fill:#004FAC;}
	.st3{fill-rule:evenodd;clip-rule:evenodd;fill:#FFFFFF;}
	.st4{opacity:0.5;}
	.st5{fill-rule:evenodd;clip-rule:evenodd;fill:#2878E3;}
</style>
<g>
	<path class="st0" d="M26.9,51.8h6.2c0.6,0,1.1,0.5,1.1,1c0,2,1.7,3.6,3.7,3.6h3.7c0.1,0.1,0.2,0.3,0.3,0.4c2.3,2.8,5.7,4.5,9.3,4.9
		c0.5,0,0.9,0.1,1.4,0.1c6.8,0,12.6-4.9,13.6-11.6c1-6.6-3.1-13-9.7-14.9c0.1-0.8,0.2-1.6,0.2-2.4v-0.2c2.8-0.5,4.8-3,4.9-5.8
		c0-0.7-0.6-1.3-1.3-1.3S59,26.2,59,26.9c0,1.5-1,2.8-2.4,3.2c-1.6-10-11.1-17.6-22.7-17.6c-1.3,0-2.6,0.1-3.9,0.3
		c-2.1-2.9-5.4-4.6-9-4.6c-0.4,0-0.8,0.2-1.1,0.5c-0.2,0.3-0.3,0.8-0.2,1.2l0.2,0.8c0.4,1.4,0.6,2.9,0.5,4.3
		c-4.3,1.7-7.9,4.8-10.4,8.6l-0.8,1.3H6.7c-1.6,0-2.9,1.3-2.9,2.9v10.1c0,1.6,1.3,2.9,2.9,2.9h2.4c0.7,1.4,1.7,2.6,2.7,3.8
		c2.1,2.3,3.3,5.3,3.3,8.4c0,2,1.7,3.6,3.7,3.7h3.3c2.1,0,3.7-1.6,3.7-3.6C25.8,52.3,26.3,51.8,26.9,51.8z M63.6,49.4
		c-0.5,4.4-3.6,8.1-7.8,9.4c-4.6,1.4-9.6-0.3-12.4-4.2c-2.8-4-2.6-9.4,0.5-13.2c3.1-3.7,8.3-5,12.9-3.2C61.3,40.1,64,44.6,63.6,49.4
		L63.6,49.4z M17.7,52.9c0-3.8-1.4-7.4-3.9-10.1c-1.1-1.2-2-2.5-2.7-3.9c-0.2-0.5-0.7-0.7-1.2-0.7H6.7c-0.2,0-0.3-0.1-0.3-0.3l0,0
		V27.7c0-0.2,0.1-0.3,0.3-0.3l0,0h3.1c0.5,0,0.9-0.2,1.1-0.6l1.2-1.9c2.3-3.6,5.8-6.4,9.9-7.9c0.5-0.2,0.8-0.6,0.9-1.1
		c0.2-1.7,0.1-3.4-0.3-5c3.8,0.8,6.6,4.2,6.6,8.1c0,0.7,0.6,1.3,1.3,1.3c0.7,0,1.3-0.6,1.3-1.3c0-1.3-0.2-2.6-0.7-3.8
		c0.8-0.1,1.7-0.1,2.6-0.1c11.2,0,20.3,8,20.3,17.9c0,0.6,0,1.3-0.1,1.9c-4.9-0.5-9.7,1.6-12.6,5.6c-2.9,3.9-3.4,9.1-1.3,13.5h-2.1
		c-0.6,0-1.1-0.5-1.1-1c0-2-1.7-3.6-3.7-3.7h-6.2c-2.1,0-3.7,1.6-3.7,3.7c0,0.6-0.5,1-1.1,1h-3.3C18.2,53.9,17.7,53.5,17.7,52.9z"/>
	<path class="st1" d="M65,49.7c-0.5,5-4,9.2-8.8,10.6c-5.2,1.6-10.8-0.4-13.9-4.8c-3.3-4.5-3-10.6,0.5-14.8s9.4-5.6,14.5-3.6
		C62.4,39.2,65.5,44.3,65,49.7z"/>
	<path class="st2" d="M24.3,25.1c0-0.7-0.6-1.3-1.3-1.3l0,0c-0.7,0-1.3,0.6-1.3,1.3c0,0.8-0.7,1.4-1.4,1.4c-0.8,0-1.4-0.6-1.4-1.4
		c0-0.7-0.6-1.3-1.3-1.3l0,0c-0.7,0-1.3,0.6-1.3,1.3c0,2.2,1.8,4,4.1,4S24.3,27.3,24.3,25.1z"/>
</g>
<path class="st3" d="M51.9,40.6v0.5c-2,0.6-3.3,2.5-3,4.6c0.3,2,2,3.6,4.1,3.6c0.9,0,1.6,0.7,1.6,1.6c0,0.9-0.8,1.6-1.6,1.5l0,0
	c-0.9,0-1.6-0.7-1.5-1.6c0-0.5-0.2-0.9-0.6-1.1c-0.4-0.2-0.9-0.3-1.3,0c-0.4,0.2-0.7,0.6-0.7,1.1c-0.1,1.8,1.1,3.4,2.8,4v0.6
	c0,0.7,0.5,1.3,1.3,1.3h0.1c0.7,0,1.2-0.6,1.2-1.3v-0.6c2-0.6,3.3-2.5,3-4.6c-0.3-2-2-3.6-4.1-3.6c-0.6,0-1.2-0.4-1.5-1
	c-0.2-0.6-0.1-1.3,0.4-1.7s1.2-0.6,1.8-0.3s1,0.8,0.9,1.5c0,0.5,0.2,0.9,0.6,1.1c0.4,0.2,0.9,0.3,1.3,0c0.4-0.2,0.7-0.6,0.7-1.1
	c0.1-1.8-1.1-3.5-2.8-4v-0.5c0-0.5-0.2-0.9-0.6-1.2c-0.4-0.2-0.9-0.3-1.3,0C52.2,39.7,51.9,40.1,51.9,40.6L51.9,40.6z"/>
<g class="st4">
	<polyline class="st5" points="31.1,35.4 32.7,37 31.1,38.6 29.5,37 31.1,35.4 	"/>
	<polyline class="st5" points="26.5,30.8 28.2,32.5 26.5,34.1 24.9,32.5 26.5,30.8 	"/>
	<polyline class="st5" points="35.6,31 37.2,32.6 35.6,34.2 34,32.6 35.6,31 	"/>
	<polyline class="st5" points="31.1,26.4 32.7,28.1 31.1,29.7 29.5,28.1 31.1,26.4 	"/>
</g>
</svg>
