<?xml version="1.0" encoding="utf-8"?>
<!-- Generator: Adobe Illustrator 25.4.1, SVG Export Plug-In . SVG Version: 6.00 Build 0)  -->
<svg version="1.1" id="Capa_1" xmlns="http://www.w3.org/2000/svg" xmlns:xlink="http://www.w3.org/1999/xlink" x="0px" y="0px"
	 viewBox="0 0 512 512" style="enable-background:new 0 0 512 512;" xml:space="preserve">
<style type="text/css">
	.st0{fill:#007ABF;}
</style>
<g transform="translate(-1 -1)">
	<g>
		<g>
			<g>
				<path class="st0" d="M490.4,390.8l-99.7-66.5c-12.7-8.4-29.6-5.6-39,6.3l-29,37.3c-3.7,4.9-10.5,6.4-15.9,3.4l-5.5-3
					c-18.3-10-41.1-22.4-87-68.4s-58.4-68.7-68.4-87l-3-5.5c-3-5.4-1.6-12.2,3.3-16l37.3-29c11.9-9.4,14.7-26.3,6.3-39l-66.5-99.7
					c-8.6-12.9-25.8-16.8-39-8.8l-41.8,25C29.4,47.6,19.8,60,15.7,74.7C0.7,129.4,12,223.8,151.1,363
					c110.7,110.6,193,140.4,249.7,140.4c13,0.1,26-1.6,38.6-5c14.6-4.1,27.1-13.7,34.8-26.8l25.1-41.7
					C507.2,416.5,503.3,399.3,490.4,390.8z M485.1,421.4l-25,41.7c-5.5,9.5-14.5,16.4-25,19.4c-50.5,13.9-138.8,2.4-272.3-131.2
					S17.7,129.5,31.5,79c3-10.6,10-19.5,19.4-25.1l41.7-25c5.8-3.5,13.2-1.8,16.9,3.8L145.7,87l30.3,45.5c3.6,5.5,2.4,12.9-2.7,16.9
					l-37.3,29c-11.4,8.7-14.6,24.4-7.6,36.9l3,5.4c10.5,19.2,23.5,43.2,71.2,90.8c47.6,47.6,71.6,60.7,90.8,71.2l5.4,3
					c12.5,7,28.2,3.8,36.9-7.6l29-37.3c4.1-5.2,11.4-6.4,16.9-2.7l99.7,66.5C486.8,408.2,488.5,415.6,485.1,421.4z"/>
				<path class="st0" d="M401.4,513c-0.2,0-0.4,0-0.7,0c-33.7,0-70.4-10-108.9-29.8c-46.3-23.7-96-61.9-147.5-113.5
					C80.8,306.3,37.8,246,16.6,190.6C0.1,147.5-3.3,107.7,6.4,72.1C11.2,55,22.3,40.6,37.6,31.6l41.6-25c17.7-10.6,40.6-5.5,52,11.7
					l66.5,99.7c11.1,16.8,7.4,39.5-8.4,51.9l-37.3,29c-1.2,0.9-1.5,2.4-0.8,3.7l0.1,0.1l3,5.5c9.7,17.8,21.8,39.9,66.7,84.9
					c45,45,67.1,57,84.8,66.7l5.6,3.1c1.2,0.7,2.8,0.4,3.6-0.7l0.1-0.1l29-37.3c12.4-15.8,35.2-19.5,51.9-8.4l99.8,66.5
					c17.2,11.5,22.3,34.3,11.7,52l-25.1,41.6c-9,15.3-23.4,26.4-40.5,31.2C428.6,511.2,415,513,401.4,513z M99.1,36.8
					c-0.5,0-1,0.1-1.5,0.4L55.8,62.3c-7.4,4.3-12.7,11.2-15,19.4c-7.9,28.8-4.6,62.1,10,98.8c19.7,49.7,59.6,104.9,118.7,164
					s114.3,99,164,118.7c36.8,14.5,70,17.9,98.9,10c8.1-2.3,15-7.6,19.3-15l0.1-0.1l25-41.7c0.8-1.3,0.4-3.1-0.9-4l-99.7-66.5
					c-1.3-0.8-3-0.5-4,0.7l-29,37.3c-11.5,15-32.6,19.4-49.2,10.1l-5.3-2.9c-19.8-10.8-44.4-24.2-93-72.8s-62-73.2-72.8-93l-3-5.4
					c-9.2-16.5-4.9-37.6,10.2-49.2l37.3-29c1.2-0.9,1.5-2.7,0.6-4l-30.3-45.4l-36.1-54.2C101,37.2,100.1,36.8,99.1,36.8z"/>
			</g>
		</g>
	</g>
</g>
</svg>
