<?xml version="1.0" encoding="utf-8"?>
<!-- Generator: Adobe Illustrator 25.4.1, SVG Export Plug-In . SVG Version: 6.00 Build 0)  -->
<svg version="1.1" id="Layer_1" xmlns="http://www.w3.org/2000/svg" xmlns:xlink="http://www.w3.org/1999/xlink" x="0px" y="0px"
	 width="80px" height="80px" viewBox="0 0 80 80" style="enable-background:new 0 0 80 80;" xml:space="preserve">
<style type="text/css">
	.st0{fill-rule:evenodd;clip-rule:evenodd;fill:#FFFFFE;}
	.st1{opacity:0.5;fill-rule:evenodd;clip-rule:evenodd;fill:#2878E3;}
	.st2{fill-rule:evenodd;clip-rule:evenodd;fill:#1D66C7;}
</style>
<g>
	<path class="st0" d="M60.7,39.6l16.9-16.9L57,2.1L40.1,19L22.8,1.7L2.2,22.3l17.3,17.3L1.6,57.5l20.6,20.6l17.9-17.9l17.5,17.5
		l20.6-20.6L60.7,39.6"/>
	<path class="st1" d="M41.7,24.5l13.5,13.5L38.4,54.9L24.9,41.4L41.7,24.5"/>
	<path class="st1" d="M57.4,11.7l1.6,1.6l-1.6,1.6l-1.6-1.6L57.4,11.7 M66.5,20.8l1.6,1.6L66.5,24l-1.6-1.6L66.5,20.8 M61.9,16.2
		l1.6,1.6l-1.6,1.6l-1.6-1.6L61.9,16.2 M48.4,20.6l1.6,1.6l-1.6,1.6l-1.6-1.6L48.4,20.6 M57.5,29.7l1.6,1.6l-1.6,1.6l-1.6-1.6
		L57.5,29.7 M53,25.1l1.6,1.6L53,28.4l-1.6-1.6L53,25.1 M53,16.2l1.6,1.6L53,19.4l-1.6-1.6L53,16.2 M62.1,25.3l1.6,1.6l-1.6,1.6
		l-1.6-1.6L62.1,25.3 M57.5,20.7l1.6,1.6L57.5,24l-1.6-1.6L57.5,20.7 M22.2,46.9l1.6,1.6l-1.6,1.6l-1.6-1.6L22.2,46.9 M31.3,56
		l1.6,1.6l-1.6,1.6l-1.6-1.6L31.3,56 M26.8,51.4l1.6,1.6l-1.6,1.6L25.2,53L26.8,51.4 M13.3,55.8l1.6,1.6L13.3,59l-1.6-1.6L13.3,55.8
		 M22.4,64.9l1.6,1.6l-1.6,1.6l-1.6-1.6L22.4,64.9 M17.9,60.3l1.6,1.6l-1.6,1.6l-1.6-1.6L17.9,60.3 M17.8,51.4l1.6,1.6l-1.6,1.6
		L16.2,53L17.8,51.4 M26.9,60.5l1.6,1.6l-1.6,1.6l-1.6-1.6L26.9,60.5 M22.4,55.9l1.6,1.6l-1.6,1.6l-1.6-1.6L22.4,55.9"/>
	<path class="st2" d="M38.4,56.9L23,41.5l12.2-12.2l1.9,1.9L26.8,41.5l11.6,11.6l15-15L41.7,26.5l-2.3,2.3l-1.9-1.9l4.2-4.2
		l15.4,15.4L38.4,56.9"/>
	<path class="st1" d="M69.7,58.8l-1.6,1.6l-1.6-1.6l1.6-1.6L69.7,58.8 M60.6,67.9L59,69.5l-1.6-1.6l1.6-1.6L60.6,67.9 M65.1,63.4
		L63.5,65l-1.6-1.6l1.6-1.6L65.1,63.4 M60.8,49.9l-1.6,1.6l-1.6-1.6l1.6-1.6L60.8,49.9 M51.6,59L50,60.6L48.4,59l1.6-1.6L51.6,59
		 M56.2,54.5l-1.6,1.6L53,54.5l1.6-1.6L56.2,54.5 M65.2,54.4L63.5,56l-1.6-1.6l1.6-1.6L65.2,54.4 M56,63.5l-1.6,1.6l-1.6-1.6
		l1.6-1.6L56,63.5 M60.6,59L59,60.6L57.4,59l1.6-1.6L60.6,59 M31.5,20.8l-1.6,1.6l-1.6-1.6l1.6-1.6L31.5,20.8 M22.4,29.9l-1.6,1.6
		l-1.6-1.6l1.6-1.6L22.4,29.9 M26.9,25.4L25.3,27l-1.6-1.6l1.6-1.6L26.9,25.4 M22.6,11.9l-1.6,1.6l-1.6-1.6l1.6-1.6L22.6,11.9
		 M13.4,21l-1.6,1.6L10.2,21l1.6-1.6L13.4,21 M18,16.5l-1.6,1.6l-1.6-1.6l1.6-1.6L18,16.5 M27,16.4L25.3,18l-1.6-1.6l1.6-1.6
		L27,16.4 M17.8,25.5l-1.6,1.6l-1.6-1.6l1.6-1.6L17.8,25.5 M22.4,21l-1.6,1.6L19.2,21l1.6-1.6L22.4,21"/>
	<path class="st2" d="M76,57.3L57.3,76L41.8,60.5l18.7-18.7C60.5,41.8,76,57.3,76,57.3z M71.9,30.5L70,28.6L22.5,76L3.8,57.3
		L57.3,3.8L76,22.5L72.6,26l1.9,1.9l5.3-5.3L57.3,0l-38,38L3.8,22.5L22.5,3.8l12.9,12.9l1.9-1.9L22.5,0L0,22.5l17.4,17.4L0,57.3
		l22.5,22.5l17.4-17.4l17.4,17.4l22.5-22.5L62.4,39.9L71.9,30.5L71.9,30.5z"/>
</g>
</svg>
