<?xml version="1.0" encoding="utf-8"?>
<!-- Generator: Adobe Illustrator 25.4.1, SVG Export Plug-In . SVG Version: 6.00 Build 0)  -->
<svg version="1.1" xmlns="http://www.w3.org/2000/svg" xmlns:xlink="http://www.w3.org/1999/xlink" x="0px" y="0px" width="2400px"
	 height="1696.8px" viewBox="0 0 2400 1696.8" style="enable-background:new 0 0 2400 1696.8;" xml:space="preserve">
<style type="text/css">
	.st0{opacity:0.2;}
	.st1{opacity:0.2;fill:#FFFFFF;}
	.st2{opacity:0.7;fill:#FFFFFF;}
	.st3{opacity:0.4;}
	.st4{opacity:0.2;clip-path:url(#SVGID_00000035531582438871137540000011798128992443050389_);fill:#FFFFFF;}
	.st5{opacity:5.000000e-02;clip-path:url(#SVGID_00000035531582438871137540000011798128992443050389_);fill:#FFFFFF;}
	.st6{opacity:0.8;}
	.st7{fill-rule:evenodd;clip-rule:evenodd;fill:#FFFFFF;}
	.st8{fill-rule:evenodd;clip-rule:evenodd;fill:#E6E6E6;}
	.st9{opacity:0.8;fill:#FFFFFF;}
	.st10{fill:#E6E6E6;}
	.st11{fill:#FFFFFF;}
</style>
<g id="Layer_1">
</g>
<g id="Layer_3">
</g>
<g id="Layer_2">
</g>
<g id="Layer_4">
	<g class="st0">
		<path class="st1" d="M1655.8,186.7L1589.1,297l-128.9-2.6l-62.2-112.9l66.7-110.3l128.9,2.6L1655.8,186.7z M1586.4,292.2
			l63.8-105.6l-59.5-108l-123.3-2.5l-63.8,105.6l59.5,108L1586.4,292.2z"/>
		<path class="st1" d="M2266.3,1028.5l-66.7,110.3l-128.9-2.6l-62.2-112.9l66.7-110.3l128.9,2.6L2266.3,1028.5z M2197,1133.9
			l63.8-105.6l-59.5-108l-123.3-2.5l-63.8,105.6l59.5,108L2197,1133.9z"/>
		<path class="st1" d="M1827.8,1229.1l-66.7,110.3l-128.9-2.6l-62.2-112.9l66.7-110.3l128.9,2.6L1827.8,1229.1z M1758.5,1334.5
			l63.8-105.6l-59.5-108l-123.3-2.5l-63.8,105.6l59.5,108L1758.5,1334.5z"/>
		<path class="st1" d="M1444.9,1229.1l-66.7,110.3l-128.9-2.6l-62.2-112.9l66.7-110.3l128.9,2.6L1444.9,1229.1z M1375.6,1334.5
			l63.8-105.6l-59.5-108l-123.3-2.5l-63.8,105.6l59.5,108L1375.6,1334.5z"/>
		<path class="st1" d="M1074.8,1008.2l-66.7,110.3l-128.9-2.6L817.1,1003l66.7-110.3l128.9,2.6L1074.8,1008.2z M1005.5,1113.6
			l63.8-105.6l-59.5-108l-123.3-2.5l-63.8,105.6l59.5,108L1005.5,1113.6z"/>
		<path class="st1" d="M2028.7,471.5L1962,581.8l-128.9-2.6L1771,466.3l66.7-110.3l128.9,2.6L2028.7,471.5z M1959.3,576.9
			l63.8-105.6l-59.5-108l-123.3-2.5l-63.8,105.6l59.5,108L1959.3,576.9z"/>
		<path class="st1" d="M1074.8,788.2l-66.7,110.3l-128.9-2.6l-62.2-112.9l66.7-110.3l128.9,2.6L1074.8,788.2z M1005.5,893.7
			l63.8-105.6l-59.5-108l-123.3-2.5l-63.8,105.6l59.5,108L1005.5,893.7z"/>
		<path class="st1" d="M1263.2,898.8l-66.7,110.3l-128.9-2.6l-62.2-112.9l66.7-110.3l128.9,2.6L1263.2,898.8z M1193.9,1004.3
			l63.8-105.6l-59.5-108l-123.3-2.5L1011,893.8l59.5,108L1193.9,1004.3z"/>
		<path class="st1" d="M1263.2,678.7L1196.5,789l-128.9-2.6l-62.2-112.9l66.7-110.3l128.9,2.6L1263.2,678.7z M1193.9,784.1
			l63.8-105.6l-59.5-108l-123.3-2.5L1011,673.7l59.5,108L1193.9,784.1z"/>
		<path class="st1" d="M1456,574.7L1389.3,685l-128.9-2.6l-62.2-112.9l66.7-110.3l128.9,2.6L1456,574.7z M1386.6,680.2l63.8-105.6
			l-59.5-108l-123.3-2.5l-63.8,105.6l59.5,108L1386.6,680.2z"/>
		<path class="st1" d="M1637.3,1121l-66.7,110.3l-128.9-2.6l-62.2-112.9l66.7-110.3l128.9,2.6L1637.3,1121z M1568,1226.5l63.8-105.6
			l-59.5-108l-123.3-2.5l-63.8,105.6l59.5,108L1568,1226.5z"/>
		<path class="st1" d="M1450.4,790.8l-66.7,110.3l-128.9-2.6l-62.2-112.9l66.7-110.3l128.9,2.6L1450.4,790.8z M1381.1,896.2
			l63.8-105.6l-59.5-108l-123.3-2.5l-63.8,105.6l59.5,108L1381.1,896.2z"/>
		<path class="st1" d="M1827.8,1013l-66.7,110.3l-128.9-2.6l-62.2-112.9l66.7-110.3l128.9,2.6L1827.8,1013z M1758.5,1118.5
			l63.8-105.6l-59.5-108l-123.3-2.5l-63.8,105.6l59.5,108L1758.5,1118.5z"/>
		<path class="st1" d="M1830.9,797l-66.7,110.3l-128.9-2.6l-62.2-112.9l66.7-110.3l128.9,2.6L1830.9,797z M1761.6,902.4l63.8-105.6
			l-59.5-108l-123.3-2.5l-63.8,105.6l59.5,108L1761.6,902.4z"/>
		<path class="st1" d="M1637.3,900.1l-66.7,110.3l-128.9-2.6L1379.6,895l66.7-110.3l128.9,2.6L1637.3,900.1z M1568,1005.6
			l63.8-105.6l-59.5-108l-123.3-2.5l-63.8,105.6l59.5,108L1568,1005.6z"/>
		<path class="st1" d="M1837.4,579.5l-66.7,110.3l-128.9-2.6l-62.2-112.9l66.7-110.3l128.9,2.6L1837.4,579.5z M1768.1,685
			l63.8-105.6l-59.5-108l-123.3-2.5l-63.8,105.6l59.5,108L1768.1,685z"/>
		<path class="st1" d="M1644.3,682.8l-66.7,110.3l-128.9-2.6l-62.2-112.9l66.7-110.3l128.9,2.6L1644.3,682.8z M1574.9,788.2
			l63.8-105.6l-59.5-108l-123.3-2.5l-63.8,105.6l59.5,108L1574.9,788.2z"/>
		<path class="st2" d="M896.3,675.3c0,5.4-4.3,9.7-9.7,9.7c-5.4,0-9.7-4.3-9.7-9.7s4.3-9.7,9.7-9.7
			C891.9,665.6,896.3,670,896.3,675.3z"/>
		<path class="st2" d="M1080.2,789c0,5.4-4.3,9.7-9.7,9.7s-9.7-4.3-9.7-9.7c0-5.4,4.3-9.7,9.7-9.7S1080.2,783.6,1080.2,789z"/>
		<path class="st2" d="M1269.8,677.8c0,5.4-4.3,9.7-9.7,9.7c-5.4,0-9.7-4.3-9.7-9.7c0-5.4,4.3-9.7,9.7-9.7
			C1265.4,668.1,1269.8,672.4,1269.8,677.8z"/>
		<path class="st2" d="M1461,788.8c0,5.4-4.3,9.7-9.7,9.7c-5.4,0-9.7-4.3-9.7-9.7c0-5.4,4.3-9.7,9.7-9.7
			C1456.7,779,1461,783.4,1461,788.8z"/>
		<path class="st2" d="M1592.2,573.5c0,5.4-4.3,9.7-9.7,9.7c-5.4,0-9.7-4.3-9.7-9.7c0-5.4,4.3-9.7,9.7-9.7
			C1587.8,563.8,1592.2,568.1,1592.2,573.5z"/>
		<path class="st2" d="M1786.2,468.9c0,5.4-4.3,9.7-9.7,9.7c-5.4,0-9.7-4.3-9.7-9.7s4.3-9.7,9.7-9.7
			C1781.9,459.2,1786.2,463.6,1786.2,468.9z"/>
		<path class="st2" d="M1403.5,464.3c0,5.4-4.3,9.7-9.7,9.7s-9.7-4.3-9.7-9.7s4.3-9.7,9.7-9.7S1403.5,459,1403.5,464.3z"/>
		<path class="st2" d="M1837.5,798.5c0,5.4-4.3,9.7-9.7,9.7c-5.4,0-9.7-4.3-9.7-9.7c0-5.4,4.3-9.7,9.7-9.7
			C1833.2,788.8,1837.5,793.1,1837.5,798.5z"/>
		<path class="st2" d="M1647,901.1c0,5.4-4.3,9.7-9.7,9.7c-5.4,0-9.7-4.3-9.7-9.7c0-5.4,4.3-9.7,9.7-9.7
			C1642.7,891.4,1647,895.7,1647,901.1z"/>
		<path class="st2" d="M1775.1,903.7c0,5.4-4.3,9.7-9.7,9.7c-5.4,0-9.7-4.3-9.7-9.7c0-5.4,4.3-9.7,9.7-9.7
			C1770.8,894,1775.1,898.3,1775.1,903.7z"/>
		<path class="st2" d="M1454.6,1005.6c0,5.4-4.3,9.7-9.7,9.7c-5.4,0-9.7-4.3-9.7-9.7c0-5.4,4.3-9.7,9.7-9.7
			C1450.2,995.9,1454.6,1000.2,1454.6,1005.6z"/>
		<path class="st2" d="M1267.4,896.2c0,5.4-4.3,9.7-9.7,9.7c-5.4,0-9.7-4.3-9.7-9.7c0-5.4,4.3-9.7,9.7-9.7
			C1263,886.5,1267.4,890.9,1267.4,896.2z"/>
		<path class="st2" d="M1080.2,1005.6c0,5.4-4.3,9.7-9.7,9.7s-9.7-4.3-9.7-9.7c0-5.4,4.3-9.7,9.7-9.7S1080.2,1000.2,1080.2,1005.6z"
			/>
		<path class="st2" d="M1451.9,1228c0,5.4-4.3,9.7-9.7,9.7c-5.4,0-9.7-4.3-9.7-9.7c0-5.4,4.3-9.7,9.7-9.7
			C1447.5,1218.3,1451.9,1222.6,1451.9,1228z"/>
		<path class="st2" d="M1771.2,1334.5c0,5.4-4.3,9.7-9.7,9.7s-9.7-4.3-9.7-9.7s4.3-9.7,9.7-9.7S1771.2,1329.2,1771.2,1334.5z"/>
		<path class="st2" d="M2083.9,917.3c0,5.4-4.3,9.7-9.7,9.7c-5.4,0-9.7-4.3-9.7-9.7c0-5.4,4.3-9.7,9.7-9.7
			C2079.6,907.6,2083.9,911.9,2083.9,917.3z"/>
		<path class="st2" d="M1261.5,1329.6c0,5.4-4.3,9.7-9.7,9.7s-9.7-4.3-9.7-9.7c0-5.4,4.3-9.7,9.7-9.7S1261.5,1324.2,1261.5,1329.6z"
			/>
		<path class="st2" d="M2202.3,1137.1c0,5.4-4.3,9.7-9.7,9.7c-5.4,0-9.7-4.3-9.7-9.7c0-5.4,4.3-9.7,9.7-9.7
			C2198,1127.4,2202.3,1131.7,2202.3,1137.1z"/>
		<path class="st2" d="M2270.5,1025.9c0,5.4-4.3,9.7-9.7,9.7s-9.7-4.3-9.7-9.7c0-5.4,4.3-9.7,9.7-9.7S2270.5,1020.5,2270.5,1025.9z"
			/>
		<path class="st2" d="M1971.8,360.9c0,5.4-4.3,9.7-9.7,9.7s-9.7-4.3-9.7-9.7s4.3-9.7,9.7-9.7S1971.8,355.5,1971.8,360.9z"/>
		<path class="st2" d="M1777.8,685c0,5.4-4.3,9.7-9.7,9.7s-9.7-4.3-9.7-9.7s4.3-9.7,9.7-9.7S1777.8,679.6,1777.8,685z"/>
		<circle class="st2" cx="1203.8" cy="567.3" r="9.7"/>
		<path class="st2" d="M1585.3,1224c0,5.4-4.3,9.7-9.7,9.7s-9.7-4.3-9.7-9.7s4.3-9.7,9.7-9.7S1585.3,1218.7,1585.3,1224z"/>
		<path class="st2" d="M1472.4,289.6c0,5.4-4.3,9.7-9.7,9.7c-5.4,0-9.7-4.3-9.7-9.7c0-5.4,4.3-9.7,9.7-9.7
			C1468,279.9,1472.4,284.3,1472.4,289.6z"/>
		<path class="st2" d="M1601.8,76.3c0,5.4-4.3,9.7-9.7,9.7s-9.7-4.3-9.7-9.7c0-5.4,4.3-9.7,9.7-9.7S1601.8,70.9,1601.8,76.3z"/>
		<path class="st2" d="M893.5,892.7c0,5.4-4.3,9.7-9.7,9.7c-5.4,0-9.7-4.3-9.7-9.7c0-5.4,4.3-9.7,9.7-9.7
			C889.1,883,893.5,887.4,893.5,892.7z"/>
		<path class="st2" d="M826.8,1003c0,5.4-4.3,9.7-9.7,9.7c-5.4,0-9.7-4.3-9.7-9.7c0-5.4,4.3-9.7,9.7-9.7
			C822.5,993.3,826.8,997.7,826.8,1003z"/>
		<path class="st2" d="M1015.2,1113.6c0,5.4-4.3,9.7-9.7,9.7c-5.4,0-9.7-4.3-9.7-9.7c0-5.4,4.3-9.7,9.7-9.7
			C1010.8,1103.9,1015.2,1108.3,1015.2,1113.6z"/>
		<g class="st3">
			<path class="st1" d="M1214.9,506.9l-66.7,110.3l-128.9-2.6l-62.2-112.9l66.7-110.3l128.9,2.6L1214.9,506.9z M1145.5,612.3
				l63.8-105.6l-59.5-108l-123.3-2.5l-63.8,105.6l59.5,108L1145.5,612.3z"/>
			<path class="st1" d="M1825.4,1348.6l-66.7,110.3l-128.9-2.6l-62.2-112.9l66.7-110.3l128.9,2.6L1825.4,1348.6z M1756.1,1454.1
				l63.8-105.6l-59.5-108L1637,1238l-63.8,105.6l59.5,108L1756.1,1454.1z"/>
			<path class="st1" d="M1386.9,1549.2l-66.7,110.3l-128.9-2.6l-62.2-112.9l66.7-110.3l128.9,2.6L1386.9,1549.2z M1317.6,1654.7
				l63.8-105.6l-59.5-108l-123.3-2.5l-63.8,105.6l59.5,108L1317.6,1654.7z"/>
			<path class="st1" d="M1004,1549.2l-66.7,110.3l-128.9-2.6l-62.2-112.9l66.7-110.3l128.9,2.6L1004,1549.2z M934.7,1654.7
				l63.8-105.6l-59.5-108l-123.3-2.5l-63.8,105.6l59.5,108L934.7,1654.7z"/>
			<path class="st1" d="M633.9,1328.3l-66.7,110.3l-128.9-2.6l-62.2-112.9l66.7-110.3l128.9,2.6L633.9,1328.3z M564.6,1433.8
				l63.8-105.6l-59.5-108l-123.3-2.5l-63.8,105.6l59.5,108L564.6,1433.8z"/>
			<path class="st1" d="M1587.8,791.6l-66.7,110.3l-128.9-2.6l-62.2-112.9l66.7-110.3l128.9,2.6L1587.8,791.6z M1518.4,897.1
				l63.8-105.6l-59.5-108l-123.3-2.5l-63.8,105.6l59.5,108L1518.4,897.1z"/>
			<path class="st1" d="M633.9,1108.4l-66.7,110.3l-128.9-2.6l-62.2-112.9l66.7-110.3l128.9,2.6L633.9,1108.4z M564.6,1213.8
				l63.8-105.6l-59.5-108l-123.3-2.5l-63.8,105.6l59.5,108L564.6,1213.8z"/>
			<path class="st1" d="M822.3,1219l-66.7,110.3l-128.9-2.6l-62.2-112.9l66.7-110.3l128.9,2.6L822.3,1219z M753,1324.4l63.8-105.6
				l-59.5-108l-123.3-2.5l-63.8,105.6l59.5,108L753,1324.4z"/>
			<path class="st1" d="M822.3,998.8l-66.7,110.3l-128.9-2.6l-62.2-112.9l66.7-110.3l128.9,2.6L822.3,998.8z M753,1104.3l63.8-105.6
				l-59.5-108l-123.3-2.5l-63.8,105.6l59.5,108L753,1104.3z"/>
			<path class="st1" d="M1015.1,894.9l-66.7,110.3l-128.9-2.6l-62.2-112.9L824,779.4l128.9,2.6L1015.1,894.9z M945.7,1000.3
				l63.8-105.6l-59.5-108l-123.3-2.5l-63.8,105.6l59.5,108L945.7,1000.3z"/>
			<path class="st1" d="M1196.4,1441.2l-66.7,110.3l-128.9-2.6l-62.2-112.9l66.7-110.3l128.9,2.6L1196.4,1441.2z M1127.1,1546.6
				l63.8-105.6l-59.5-108l-123.3-2.5l-63.8,105.6l59.5,108L1127.1,1546.6z"/>
			<path class="st1" d="M1009.5,1110.9l-66.7,110.3l-128.9-2.6l-62.2-112.9l66.7-110.3l128.9,2.6L1009.5,1110.9z M940.2,1216.4
				l63.8-105.6l-59.5-108l-123.3-2.5l-63.8,105.6l59.5,108L940.2,1216.4z"/>
			<path class="st1" d="M1386.9,1333.2l-66.7,110.3l-128.9-2.6l-62.2-112.9l66.7-110.3l128.9,2.6L1386.9,1333.2z M1317.6,1438.6
				l63.8-105.6l-59.5-108l-123.3-2.5l-63.8,105.6l59.5,108L1317.6,1438.6z"/>
			<path class="st1" d="M1390,1117.1l-66.7,110.3l-128.9-2.6l-62.2-112.9l66.7-110.3l128.9,2.6L1390,1117.1z M1320.7,1222.6
				l63.8-105.6l-59.5-108l-123.3-2.5l-63.8,105.6l59.5,108L1320.7,1222.6z"/>
			<path class="st1" d="M1196.4,1220.3l-66.7,110.3l-128.9-2.6l-62.2-112.9l66.7-110.3l128.9,2.6L1196.4,1220.3z M1127.1,1325.7
				l63.8-105.6l-59.5-108l-123.3-2.5l-63.8,105.6l59.5,108L1127.1,1325.7z"/>
			<path class="st1" d="M1396.5,899.7l-66.7,110.3l-128.9-2.6l-62.2-112.9l66.7-110.3l128.9,2.6L1396.5,899.7z M1327.2,1005.1
				l63.8-105.6l-59.5-108l-123.3-2.5l-63.8,105.6l59.5,108L1327.2,1005.1z"/>
			<path class="st1" d="M1203.4,1002.9l-66.7,110.3l-128.9-2.6l-62.2-112.9l66.7-110.3l128.9,2.6L1203.4,1002.9z M1134,1108.4
				l63.8-105.6l-59.5-108l-123.3-2.5l-63.8,105.6l59.5,108L1134,1108.4z"/>
			<path class="st2" d="M455.4,995.5c0,5.4-4.3,9.7-9.7,9.7c-5.4,0-9.7-4.3-9.7-9.7c0-5.4,4.3-9.7,9.7-9.7
				C451,985.8,455.4,990.1,455.4,995.5z"/>
			<path class="st2" d="M639.3,1109.1c0,5.4-4.3,9.7-9.7,9.7c-5.4,0-9.7-4.3-9.7-9.7c0-5.4,4.3-9.7,9.7-9.7
				C635,1099.4,639.3,1103.8,639.3,1109.1z"/>
			<path class="st2" d="M828.9,997.9c0,5.4-4.3,9.7-9.7,9.7c-5.4,0-9.7-4.3-9.7-9.7c0-5.4,4.3-9.7,9.7-9.7
				C824.5,988.2,828.9,992.6,828.9,997.9z"/>
			<path class="st2" d="M1020.1,1108.9c0,5.4-4.3,9.7-9.7,9.7c-5.4,0-9.7-4.3-9.7-9.7c0-5.4,4.3-9.7,9.7-9.7
				C1015.8,1099.2,1020.1,1103.5,1020.1,1108.9z"/>
			<path class="st2" d="M1151.3,893.6c0,5.4-4.3,9.7-9.7,9.7c-5.4,0-9.7-4.3-9.7-9.7c0-5.4,4.3-9.7,9.7-9.7
				C1146.9,883.9,1151.3,888.3,1151.3,893.6z"/>
			<path class="st2" d="M1345.3,789.1c0,5.4-4.3,9.7-9.7,9.7c-5.4,0-9.7-4.3-9.7-9.7c0-5.4,4.3-9.7,9.7-9.7
				C1341,779.4,1345.3,783.7,1345.3,789.1z"/>
			<path class="st2" d="M962.6,784.5c0,5.4-4.3,9.7-9.7,9.7c-5.4,0-9.7-4.3-9.7-9.7c0-5.4,4.3-9.7,9.7-9.7
				C958.2,774.8,962.6,779.1,962.6,784.5z"/>
			<path class="st2" d="M1396.6,1118.6c0,5.4-4.3,9.7-9.7,9.7s-9.7-4.3-9.7-9.7c0-5.4,4.3-9.7,9.7-9.7S1396.6,1113.3,1396.6,1118.6z
				"/>
			<path class="st2" d="M1206.1,1221.2c0,5.4-4.3,9.7-9.7,9.7c-5.4,0-9.7-4.3-9.7-9.7c0-5.4,4.3-9.7,9.7-9.7
				C1201.8,1211.5,1206.1,1215.9,1206.1,1221.2z"/>
			<path class="st2" d="M1334.2,1223.8c0,5.4-4.3,9.7-9.7,9.7c-5.4,0-9.7-4.3-9.7-9.7c0-5.4,4.3-9.7,9.7-9.7
				C1329.9,1214.1,1334.2,1218.5,1334.2,1223.8z"/>
			<path class="st2" d="M1013.7,1325.7c0,5.4-4.3,9.7-9.7,9.7c-5.4,0-9.7-4.3-9.7-9.7s4.3-9.7,9.7-9.7
				C1009.3,1316,1013.7,1320.4,1013.7,1325.7z"/>
			<path class="st2" d="M826.5,1216.4c0,5.4-4.3,9.7-9.7,9.7c-5.4,0-9.7-4.3-9.7-9.7c0-5.4,4.3-9.7,9.7-9.7
				C822.1,1206.7,826.5,1211,826.5,1216.4z"/>
			<path class="st2" d="M639.3,1325.7c0,5.4-4.3,9.7-9.7,9.7c-5.4,0-9.7-4.3-9.7-9.7s4.3-9.7,9.7-9.7
				C635,1316,639.3,1320.4,639.3,1325.7z"/>
			<path class="st2" d="M1011,1548.2c0,5.4-4.3,9.7-9.7,9.7c-5.4,0-9.7-4.3-9.7-9.7c0-5.4,4.3-9.7,9.7-9.7
				C1006.6,1538.5,1011,1542.8,1011,1548.2z"/>
			<path class="st2" d="M1330.3,1654.7c0,5.4-4.3,9.7-9.7,9.7c-5.4,0-9.7-4.3-9.7-9.7c0-5.4,4.3-9.7,9.7-9.7
				C1325.9,1645,1330.3,1649.3,1330.3,1654.7z"/>
			<path class="st2" d="M1643,1237.5c0,5.4-4.3,9.7-9.7,9.7c-5.4,0-9.7-4.3-9.7-9.7c0-5.4,4.3-9.7,9.7-9.7
				C1638.7,1227.8,1643,1232.1,1643,1237.5z"/>
			<path class="st2" d="M820.6,1649.8c0,5.4-4.3,9.7-9.7,9.7c-5.4,0-9.7-4.3-9.7-9.7s4.3-9.7,9.7-9.7
				C816.2,1640,820.6,1644.4,820.6,1649.8z"/>
			<path class="st2" d="M1761.4,1457.3c0,5.4-4.3,9.7-9.7,9.7c-5.4,0-9.7-4.3-9.7-9.7s4.3-9.7,9.7-9.7
				C1757.1,1447.6,1761.4,1451.9,1761.4,1457.3z"/>
			<path class="st2" d="M1530.9,681c0,5.4-4.3,9.7-9.7,9.7s-9.7-4.3-9.7-9.7c0-5.4,4.3-9.7,9.7-9.7S1530.9,675.7,1530.9,681z"/>
			<path class="st2" d="M1336.9,1005.1c0,5.4-4.3,9.7-9.7,9.7c-5.4,0-9.7-4.3-9.7-9.7c0-5.4,4.3-9.7,9.7-9.7
				C1332.6,995.4,1336.9,999.8,1336.9,1005.1z"/>
			<path class="st2" d="M772.6,887.5c0,5.4-4.3,9.7-9.7,9.7c-5.4,0-9.7-4.3-9.7-9.7s4.3-9.7,9.7-9.7
				C768.3,877.8,772.6,882.1,772.6,887.5z"/>
			<path class="st2" d="M1144.4,1544.2c0,5.4-4.3,9.7-9.7,9.7c-5.4,0-9.7-4.3-9.7-9.7c0-5.4,4.3-9.7,9.7-9.7
				C1140.1,1534.5,1144.4,1538.8,1144.4,1544.2z"/>
			<path class="st2" d="M1031.5,609.8c0,5.4-4.3,9.7-9.7,9.7c-5.4,0-9.7-4.3-9.7-9.7c0-5.4,4.3-9.7,9.7-9.7
				C1027.1,600.1,1031.5,604.4,1031.5,609.8z"/>
			<path class="st2" d="M452.6,1212.9c0,5.4-4.3,9.7-9.7,9.7c-5.4,0-9.7-4.3-9.7-9.7s4.3-9.7,9.7-9.7
				C448.2,1203.2,452.6,1207.5,452.6,1212.9z"/>
			<path class="st2" d="M385.9,1323.2c0,5.4-4.3,9.7-9.7,9.7c-5.4,0-9.7-4.3-9.7-9.7c0-5.4,4.3-9.7,9.7-9.7
				C381.6,1313.5,385.9,1317.8,385.9,1323.2z"/>
			<path class="st2" d="M574.3,1433.8c0,5.4-4.3,9.7-9.7,9.7c-5.4,0-9.7-4.3-9.7-9.7c0-5.4,4.3-9.7,9.7-9.7
				C569.9,1424.1,574.3,1428.4,574.3,1433.8z"/>
		</g>
		<g>
			<defs>
				<rect id="SVGID_1_" width="2400" height="1696.8"/>
			</defs>
			<clipPath id="SVGID_00000120552413821466732470000002757955281822790588_">
				<use xlink:href="#SVGID_1_"  style="overflow:visible;"/>
			</clipPath>
			<polygon style="opacity:0.2;clip-path:url(#SVGID_00000120552413821466732470000002757955281822790588_);fill:#FFFFFF;" points="
				2171.6,99.8 2106.3,207.7 2167.2,318.1 2293.3,320.7 2358.5,212.7 2297.6,102.3 			"/>
			<polygon style="opacity:0.2;clip-path:url(#SVGID_00000120552413821466732470000002757955281822790588_);fill:#FFFFFF;" points="
				1963,210.2 1897.8,318.1 1958.7,428.6 2084.7,431.1 2150,323.2 2089.1,212.7 			"/>
			
				<polygon style="opacity:5.000000e-02;clip-path:url(#SVGID_00000120552413821466732470000002757955281822790588_);fill:#FFFFFF;" points="
				2165.3,332.4 2100.1,440.4 2160.9,550.8 2287,553.3 2352.2,445.4 2291.4,335 			"/>
			<polygon style="opacity:0.2;clip-path:url(#SVGID_00000120552413821466732470000002757955281822790588_);fill:#FFFFFF;" points="
				2376.9,223.9 2311.7,331.8 2372.6,442.2 2498.7,444.8 2563.9,336.8 2503,226.4 			"/>
			<polygon style="opacity:0.2;clip-path:url(#SVGID_00000120552413821466732470000002757955281822790588_);fill:#FFFFFF;" points="
				1960.7,-27.7 1895.5,80.3 1956.3,190.7 2082.4,193.2 2147.6,85.3 2086.8,-25.1 			"/>
			<polygon style="opacity:0.2;clip-path:url(#SVGID_00000120552413821466732470000002757955281822790588_);fill:#FFFFFF;" points="
				2171.6,-134.9 2106.3,-27 2167.2,83.5 2293.3,86 2358.5,-22 2297.6,-132.4 			"/>
			<polygon style="opacity:0.2;clip-path:url(#SVGID_00000120552413821466732470000002757955281822790588_);fill:#FFFFFF;" points="
				2382.9,-13.3 2317.7,94.7 2378.5,205.1 2504.6,207.6 2569.9,99.7 2509,-10.7 			"/>
			
				<polygon style="opacity:5.000000e-02;clip-path:url(#SVGID_00000120552413821466732470000002757955281822790588_);fill:#FFFFFF;" points="
				1954,682.8 1888.8,790.7 1949.6,901.1 2075.7,903.7 2140.9,795.7 2080.1,685.3 			"/>
			<polygon style="opacity:0.2;clip-path:url(#SVGID_00000120552413821466732470000002757955281822790588_);fill:#FFFFFF;" points="
				1745.4,793.2 1680.2,901.1 1741.1,1011.6 1867.2,1014.1 1932.4,906.2 1871.5,795.7 			"/>
			<polygon style="opacity:0.2;clip-path:url(#SVGID_00000120552413821466732470000002757955281822790588_);fill:#FFFFFF;" points="
				1947.7,915.4 1882.5,1023.4 1943.4,1133.8 2069.4,1136.3 2134.7,1028.4 2073.8,918 			"/>
			<polygon style="opacity:0.2;clip-path:url(#SVGID_00000120552413821466732470000002757955281822790588_);fill:#FFFFFF;" points="
				2159.4,806.9 2094.1,914.8 2155,1025.2 2281.1,1027.8 2346.3,919.8 2285.4,809.4 			"/>
			<polygon style="opacity:0.2;clip-path:url(#SVGID_00000120552413821466732470000002757955281822790588_);fill:#FFFFFF;" points="
				1743.1,555.3 1677.9,663.3 1738.8,773.7 1864.8,776.2 1930.1,668.3 1869.2,557.9 			"/>
			<polygon style="opacity:0.2;clip-path:url(#SVGID_00000120552413821466732470000002757955281822790588_);fill:#FFFFFF;" points="
				1954,448.1 1888.8,556 1949.6,666.5 2075.7,669 2140.9,561 2080.1,450.6 			"/>
			<polygon style="opacity:0.2;clip-path:url(#SVGID_00000120552413821466732470000002757955281822790588_);fill:#FFFFFF;" points="
				2165.3,569.7 2100.1,677.7 2161,788.1 2287,790.6 2352.3,682.7 2291.4,572.3 			"/>
			<polygon style="opacity:0.2;clip-path:url(#SVGID_00000120552413821466732470000002757955281822790588_);fill:#FFFFFF;" points="
				2585.8,587.7 2520.6,695.6 2581.4,806.1 2707.5,808.6 2772.7,700.6 2711.9,590.2 			"/>
			<polygon style="opacity:0.2;clip-path:url(#SVGID_00000120552413821466732470000002757955281822790588_);fill:#FFFFFF;" points="
				1328.4,565.7 1263.2,673.6 1324.1,784.1 1450.2,786.6 1515.4,678.6 1454.5,568.2 			"/>
			<polygon style="opacity:0.2;clip-path:url(#SVGID_00000120552413821466732470000002757955281822790588_);fill:#FFFFFF;" points="
				1328.4,806.9 1263.2,914.8 1324.1,1025.2 1450.2,1027.8 1515.4,919.8 1454.5,809.4 			"/>
			<polygon style="opacity:0.2;clip-path:url(#SVGID_00000120552413821466732470000002757955281822790588_);fill:#FFFFFF;" points="
				2377.2,698.1 2312,806.1 2372.9,916.5 2499,919 2564.2,811.1 2503.3,700.6 			"/>
			<polygon style="opacity:0.2;clip-path:url(#SVGID_00000120552413821466732470000002757955281822790588_);fill:#FFFFFF;" points="
				2579.5,820.4 2514.3,928.3 2575.2,1038.7 2701.2,1041.3 2766.5,933.3 2705.6,822.9 			"/>
			<polygon style="opacity:0.2;clip-path:url(#SVGID_00000120552413821466732470000002757955281822790588_);fill:#FFFFFF;" points="
				1318.7,1267.2 1253.5,1375.2 1314.4,1485.6 1440.5,1488.1 1505.7,1380.2 1444.8,1269.8 			"/>
			<polygon style="opacity:0.2;clip-path:url(#SVGID_00000120552413821466732470000002757955281822790588_);fill:#FFFFFF;" points="
				1104.3,936.6 1039,1044.6 1099.9,1155 1226,1157.5 1291.2,1049.6 1230.4,939.2 			"/>
			<polygon style="opacity:0.2;clip-path:url(#SVGID_00000120552413821466732470000002757955281822790588_);fill:#FFFFFF;" points="
				1318.7,317.5 1253.5,425.4 1314.4,535.9 1440.5,538.4 1505.7,430.4 1444.8,320 			"/>
			<polygon style="opacity:0.2;clip-path:url(#SVGID_00000120552413821466732470000002757955281822790588_);fill:#FFFFFF;" points="
				2159.4,1274.2 2094.1,1382.1 2155,1492.6 2281.1,1495.1 2346.3,1387.1 2285.4,1276.7 			"/>
			<polygon style="opacity:0.2;clip-path:url(#SVGID_00000120552413821466732470000002757955281822790588_);fill:#FFFFFF;" points="
				2369.4,926.5 2304.2,1034.4 2365.1,1144.9 2491.2,1147.4 2556.4,1039.5 2495.5,929 			"/>
			<polygon style="opacity:0.2;clip-path:url(#SVGID_00000120552413821466732470000002757955281822790588_);fill:#FFFFFF;" points="
				2374.9,1166.1 2309.7,1274 2370.6,1384.4 2496.6,1387 2561.9,1279 2501,1168.6 			"/>
			<polygon style="opacity:0.2;clip-path:url(#SVGID_00000120552413821466732470000002757955281822790588_);fill:#FFFFFF;" points="
				1534.3,1618.3 1469.1,1726.2 1530,1836.7 1656.1,1839.2 1721.3,1731.3 1660.4,1620.8 			"/>
			<polygon style="opacity:0.2;clip-path:url(#SVGID_00000120552413821466732470000002757955281822790588_);fill:#FFFFFF;" points="
				2374.9,460.2 2309.7,568.2 2370.6,678.6 2496.6,681.2 2561.9,573.2 2501,462.8 			"/>
			<polygon style="opacity:0.2;clip-path:url(#SVGID_00000120552413821466732470000002757955281822790588_);fill:#FFFFFF;" points="
				2585.8,353 2520.6,460.9 2581.4,571.4 2707.5,573.9 2772.7,466 2711.9,355.5 			"/>
			<polygon style="opacity:0.2;clip-path:url(#SVGID_00000120552413821466732470000002757955281822790588_);fill:#FFFFFF;" points="
				1334.4,73.7 1269.2,181.6 1330,292.1 1456.1,294.6 1521.3,186.7 1460.5,76.2 			"/>
			<polygon style="opacity:0.2;clip-path:url(#SVGID_00000120552413821466732470000002757955281822790588_);fill:#FFFFFF;" points="
				2797.1,474.6 2731.9,582.6 2792.8,693 2918.9,695.6 2984.1,587.6 2923.2,477.2 			"/>
			
				<polygon style="opacity:5.000000e-02;clip-path:url(#SVGID_00000120552413821466732470000002757955281822790588_);fill:#FFFFFF;" points="
				1742.9,1265.8 1677.7,1373.7 1738.5,1484.2 1864.6,1486.7 1929.8,1378.7 1869,1268.3 			"/>
			<polygon style="opacity:0.2;clip-path:url(#SVGID_00000120552413821466732470000002757955281822790588_);fill:#FFFFFF;" points="
				1534.3,1376.2 1469.1,1484.2 1530,1594.6 1656.1,1597.1 1721.3,1489.2 1660.4,1378.7 			"/>
			<polygon style="opacity:0.2;clip-path:url(#SVGID_00000120552413821466732470000002757955281822790588_);fill:#FFFFFF;" points="
				1736.6,1498.5 1671.4,1606.4 1732.3,1716.8 1858.3,1719.4 1923.6,1611.4 1862.7,1501 			"/>
			<polygon style="opacity:0.2;clip-path:url(#SVGID_00000120552413821466732470000002757955281822790588_);fill:#FFFFFF;" points="
				1948.3,1389.9 1883,1497.8 1943.9,1608.2 2070,1610.8 2135.2,1502.8 2074.3,1392.4 			"/>
			<polygon style="opacity:0.2;clip-path:url(#SVGID_00000120552413821466732470000002757955281822790588_);fill:#FFFFFF;" points="
				1532,1138.3 1466.8,1246.3 1527.7,1356.7 1653.7,1359.2 1719,1251.3 1658.1,1140.9 			"/>
			<polygon style="opacity:0.2;clip-path:url(#SVGID_00000120552413821466732470000002757955281822790588_);fill:#FFFFFF;" points="
				1742.9,1031.1 1677.7,1139 1738.5,1249.5 1864.6,1252 1929.8,1144 1869,1033.6 			"/>
			<polygon style="opacity:0.2;clip-path:url(#SVGID_00000120552413821466732470000002757955281822790588_);fill:#FFFFFF;" points="
				1954.2,1152.7 1889,1260.7 1949.9,1371.1 2075.9,1373.6 2141.2,1265.7 2080.3,1155.3 			"/>
			<polygon style="opacity:0.2;clip-path:url(#SVGID_00000120552413821466732470000002757955281822790588_);fill:#FFFFFF;" points="
				1539.5,682.8 1474.3,790.7 1535.1,901.1 1661.2,903.7 1726.4,795.7 1665.6,685.3 			"/>
			<polygon style="opacity:0.2;clip-path:url(#SVGID_00000120552413821466732470000002757955281822790588_);fill:#FFFFFF;" points="
				1743.1,317.5 1677.9,425.4 1738.8,535.9 1864.8,538.4 1930.1,430.4 1869.2,320 			"/>
			<polygon style="opacity:0.2;clip-path:url(#SVGID_00000120552413821466732470000002757955281822790588_);fill:#FFFFFF;" points="
				1538.8,195.5 1472.2,302.5 1531.5,413.8 1657.6,418 1724.2,311 1664.9,199.7 			"/>
			
				<polygon style="opacity:5.000000e-02;clip-path:url(#SVGID_00000120552413821466732470000002757955281822790588_);fill:#FFFFFF;" points="
				1452.4,1510.4 1326.2,1510.4 1263.2,1619.6 1326.2,1728.8 1452.4,1728.8 1515.4,1619.6 			"/>
			
				<polygon style="opacity:5.000000e-02;clip-path:url(#SVGID_00000120552413821466732470000002757955281822790588_);fill:#FFFFFF;" points="
				1236.5,1176.4 1110.4,1176.4 1047.4,1285.7 1110.4,1394.9 1236.5,1394.9 1299.6,1285.7 			"/>
			
				<polygon style="opacity:5.000000e-02;clip-path:url(#SVGID_00000120552413821466732470000002757955281822790588_);fill:#FFFFFF;" points="
				1240.7,684 1114.6,684 1051.5,793.2 1114.6,902.4 1240.7,902.4 1303.7,793.2 			"/>
			
				<polygon style="opacity:5.000000e-02;clip-path:url(#SVGID_00000120552413821466732470000002757955281822790588_);fill:#FFFFFF;" points="
				1452.4,326.9 1326.2,326.9 1263.2,436.2 1326.2,545.4 1452.4,545.4 1515.4,436.2 			"/>
			
				<polygon style="opacity:5.000000e-02;clip-path:url(#SVGID_00000120552413821466732470000002757955281822790588_);fill:#FFFFFF;" points="
				1661.3,918.7 1535.1,918.7 1472.1,1027.9 1535.1,1137.1 1661.3,1137.1 1724.3,1027.9 			"/>
			
				<polygon style="opacity:5.000000e-02;clip-path:url(#SVGID_00000120552413821466732470000002757955281822790588_);fill:#FFFFFF;" points="
				1645.5,449.3 1519.4,449.3 1456.4,558.5 1519.4,667.7 1645.5,667.7 1708.6,558.5 			"/>
			
				<polygon style="opacity:5.000000e-02;clip-path:url(#SVGID_00000120552413821466732470000002757955281822790588_);fill:#FFFFFF;" points="
				1871.2,319.9 1745.1,319.9 1682.1,429.2 1745.1,538.4 1871.2,538.4 1934.3,429.2 			"/>
			
				<polygon style="opacity:5.000000e-02;clip-path:url(#SVGID_00000120552413821466732470000002757955281822790588_);fill:#FFFFFF;" points="
				2283.3,1041.8 2157.2,1041.8 2094.1,1151 2157.2,1260.2 2283.3,1260.2 2346.3,1151 			"/>
			
				<polygon style="opacity:5.000000e-02;clip-path:url(#SVGID_00000120552413821466732470000002757955281822790588_);fill:#FFFFFF;" points="
				2278.2,1525.3 2152.1,1525.3 2089.1,1634.5 2152.1,1743.7 2278.2,1743.7 2341.3,1634.5 			"/>
			
				<polygon style="opacity:5.000000e-02;clip-path:url(#SVGID_00000120552413821466732470000002757955281822790588_);fill:#FFFFFF;" points="
				2496.5,1405.6 2370.4,1405.6 2307.4,1514.8 2370.4,1624.1 2496.5,1624.1 2559.6,1514.8 			"/>
		</g>
		<path class="st2" d="M2043.3,749.3c2.8,9.1,9.3,12.8,16,15c11.4,3.8,15.8,12.1,18,22.7c1.3,6.6,1.7,13.2,1.2,19.9
			c-1.4,16.9-1.1,33.8-1.1,50.7c0,12.6-3.4,16-16.4,16c-28.3,0.1-56.6,0-84.8,0c-4.2,0-8.3,0.2-12.5-0.1
			c-9.2-0.7-12.8-4.5-12.8-13.7c0-18,0.4-36-1.1-54c-0.6-7.2,0-14.4,1.8-21.5c2.3-9.4,6.9-16.4,16.9-19.8c7-2.4,13.5-6.3,16.6-15.1
			c-8.5-1.1-7.1-6.6-6.7-12.4c0.6-8.8,0.5-17.7-0.2-26.6c-0.3-4.6,1-6.1,5.2-6.1c20.5,0,41,0,61.5,0c3.7,0,5.4,1.3,5,5.5
			c-0.9,10.2-1.2,20.5,0.3,30.7C2051,745.7,2048.7,748.4,2043.3,749.3z M2049.5,795.2c-30.4,0-60.2,0-90.1,0c-3.6,0-4.9,1.6-4.9,5
			c0,15.2,0,30.3,0,45.9c32.7,0,63.5,0,94.9,0C2049.1,829,2050.9,812.5,2049.5,795.2z M1955.8,789.9c31.6,0,62.2,0,92.8,0
			c1.7-6.1-2-8.2-6-10.6c-8.1-4.7-9.5-7.9-6.5-15.3c2.5,11.9,18.7,12.1,19.2,25.1c0,0.4,1.9,1.1,2.9,1.1c4.6,0,9.3,0.8,14.5-0.8
			c-1.6-9.5-4.4-16.9-14.4-20.4c-8.3-2.9-16.2-7.6-19.1-17.1c-1.1-3.5-3.7-3.6-6.5-3.6c-12.2,0-24.4,0-36.6,0
			c-2.8,0-5.6-0.2-6.7,3.4c-2.9,9.5-10.7,14.2-19,17.2C1960.3,772.5,1957,779.6,1955.8,789.9z M2048.3,852.2c-30.7,0-61.3,0-91.9,0
			c-2.1,14.5-0.2,16.9,13.7,16.9c29.7,0,59.3,0.1,89,0c13,0,16-4.3,12.1-17.1c-5.4-0.2-10.9-0.9-16.2,0.4
			c-2.8,10.1-2.8,10.1-9.6,10.9C2044.6,859.2,2051.1,857.4,2048.3,852.2z"/>
		<path class="st2" d="M2195.6,1168.2c-17.7-0.9-30.8-1.5-43-2.1c-7.9-8.7-4.6-18.1-5.2-26.7c-0.5-7.6-0.1-15.2-0.1-24.8
			c15.7-0.9,28.8-1.7,42.2-2.5c10.5-9.6,0.9-24.1,9.1-35.6c13.7-7.4,29.4-2,44.6-3.8c8.5,11.8,3,25,7.6,38.4
			c13.4,1.4,27.4,2.9,40.9,4.3c7.3,17,2.7,32.3,3.4,49.7c-15.7,1.1-29.7,2.1-43.2,3.1c-6.4,16.8,2.9,33.4-7.2,49.8
			c-14.4,5.1-30.6,3.2-49.2,1.7C2195.6,1202.8,2195.6,1187.4,2195.6,1168.2z"/>
		<g class="st6">
			<path class="st7" d="M1804.9,1314.6l76.6-1.1c0,0,3,0.8,2.9,4.4c-0.1,3.5-2.7,71.3-2.7,71.3s-0.1,6.1-3.1,11.7
				c-3,5.6-26.8,58.2-73.7,64.2c-48.3,6.2-74-42.3-77.2-47.5c-3.3-5.2-3.4-11.5-3.4-11.5s-2.9-70.7-3-74.3s3.2-5.1,3.2-5.1
				L1804.9,1314.6z"/>
			<path class="st7" d="M1804.9,1322.1l-77.2,11.6c0.7,23.7,2,47.5,2.9,71.2c0.1,2.5,1,5.6,2.2,7.5c2.2,3.5,4.2,6.9,6.5,10.3
				c4.3,6.1,9.1,11.8,14.3,16.6c14.8,13.8,32,20.6,51.3,18.1c19-2.4,35.7-13.2,49.7-30.1c4.9-5.9,9.3-12.3,13.3-19.2
				c2.2-3.7,4-7.4,6-11.2c1.1-2.1,1.9-5.2,2-7.6c0.8-22.8,2-45.8,2.6-68.5L1804.9,1322.1z"/>
			<path class="st8" d="M1728.8,1364.5c0.4,9.3,0.8,18.5,1.2,27.8l71.2-40.8L1728.8,1364.5L1728.8,1364.5z M1730.5,1401.8l0.1,3.1
				c0.1,2.5,1,5.6,2.2,7.5c2.2,3.5,4.2,6.9,6.5,10.3c4.3,6.1,9.1,11.8,14.3,16.6c14.8,13.8,32,20.6,51.3,18.1
				c19-2.4,35.7-13.2,49.7-30.1c4.9-5.9,9.3-12.3,13.3-19.2c2.2-3.7,4-7.4,6-11.2c0.3-0.6,0.6-1.2,0.8-1.9c0,0-11.7,17.4-53.2,22.2
				C1778.9,1422.1,1730.5,1401.8,1730.5,1401.8L1730.5,1401.8z M1876.1,1383c0.2-6.5,0.5-13.1,0.8-19.6l-50.3,0.5L1876.1,1383z"/>
		</g>
		<path class="st9" d="M1626.3,506.8h-9.3c0-21.8-14.3-39.6-31.9-39.6s-31.9,17.8-31.9,39.6h-9.3c-15.9,0-29,13-29,29v49.8
			c0,15.9,13,29,29,29h82.4c15.9,0,29-13,29-29v-49.8C1655.3,519.8,1642.3,506.8,1626.3,506.8z M1585.1,474.9
			c13.4,0,24.2,14.3,24.2,31.9h-48.4C1560.9,489.2,1571.8,474.9,1585.1,474.9z M1621.6,568.4h-26.4v28.7h-20.1v-28.7h-26.4v-20.2
			h26.4v-24h20.1v24h26.4V568.4z"/>
		<path class="st9" d="M1602.5,949.3c0,0,12.8,13.3,42.9,17.2c28.8,3.7,37.5-4.7,37.5-4.7s17.4,103.2-80.4,160
			c-97.8-56.7-80.4-160-80.4-160s8.7,8.4,37.5,4.7C1589.7,962.7,1602.5,949.3,1602.5,949.3z"/>
		<path class="st9" d="M1559.6,966.5c-28.8,3.7-37.5-4.7-37.5-4.7s-17.4,103.2,80.4,160V949.3
			C1602.5,949.3,1589.7,962.7,1559.6,966.5z"/>
		<g class="st6">
			<g>
				<path class="st10" d="M1601.1,950.8c3.2,2.9,16.4,13.4,42.8,16.8c4.9,0.6,9.6,1,13.9,1c13.3,0,20.1-3,22.9-4.8
					c0.8,6.3,2.8,29-3.8,56.5c-4.5,19-12.3,36.5-22.9,52c-13.2,19.2-31,35.5-53,48.3c-21.9-12.8-39.7-29-52.9-48.2
					c-10.7-15.5-18.4-33-22.9-51.9c-6.6-27.5-4.6-50.3-3.8-56.6c2.8,1.7,9.6,4.8,22.9,4.8c4.3,0,9-0.3,13.9-1
					C1584.7,964.2,1597.9,953.7,1601.1,950.8 M1601.1,949.3c0,0-12.8,13.3-42.9,17.2c-5.2,0.7-9.8,1-13.8,1
					c-17.9,0-23.7-5.6-23.7-5.6s-17.4,103.2,80.4,160c97.8-56.7,80.4-160,80.4-160s-5.8,5.6-23.7,5.6c-4,0-8.5-0.3-13.8-1
					C1613.9,962.7,1601.1,949.3,1601.1,949.3L1601.1,949.3z"/>
			</g>
			<polygon class="st10" points="1639.7,1018.1 1611.5,1018.1 1611.5,989.9 1591.4,989.9 1591.4,1018.1 1563.2,1018.1 
				1563.2,1038.2 1591.4,1038.2 1591.4,1066.4 1611.5,1066.4 1611.5,1038.2 1639.7,1038.2 			"/>
		</g>
		<g class="st6">
			<path class="st11" d="M1874.5,194.9c10.9-10.6,11.1-28,0.5-38.9c-10.6-10.9-28-11.1-38.9-0.5l-34.3,33.5l38.4,39.4L1874.5,194.9z
				"/>
			<path class="st11" d="M1797.6,193.1l-36,35.1c-10.9,10.6-11.1,28-0.5,38.9c10.6,10.9,28,11.1,38.9,0.5l36-35.1l-20.8-21.3
				L1797.6,193.1z"/>
		</g>
		<path class="st9" d="M2287.5,440.7l0-7.2c-1.9-21.6-16.9-32.8-29.9-33.9c-2.1-0.2-4.1-0.3-6-0.3c-14.9,0.1-22.1,6.3-30.2,15.6l0,0
			c-8.3-9.3-15.5-15.4-30.4-15.3c-1.9,0-3.9,0.1-6,0.3c-12.9,1.3-27.8,12.6-29.5,34.3l0,7.2c1.8,20.7,18.3,46.1,66.4,77.9
			c0,0,0,0,0,0C2269.7,487,2285.9,461.4,2287.5,440.7z"/>
	</g>
</g>
<g id="Layer_5">
</g>
</svg>
