<?xml version="1.0" encoding="utf-8"?>
<!-- Generator: Adobe Illustrator 25.4.1, SVG Export Plug-In . SVG Version: 6.00 Build 0)  -->
<svg version="1.1" id="Layer_1" xmlns="http://www.w3.org/2000/svg" xmlns:xlink="http://www.w3.org/1999/xlink" x="0px" y="0px"
	 width="457px" height="488.7px" viewBox="0 0 457 488.7" style="enable-background:new 0 0 457 488.7;" xml:space="preserve">
<style type="text/css">
	.st0{fill:#6E757C;}
	.st1{fill:#EE7F00;}
	.st2{fill:url(#SVGID_1_);}
	.st3{fill:url(#SVGID_00000117655565245777805400000005066407443200847800_);}
	.st4{fill-rule:evenodd;clip-rule:evenodd;fill:url(#SVGID_00000163069692354591884780000007632824791006804139_);}
	.st5{fill:url(#SVGID_00000029755333259133937630000011576821920861653691_);}
	.st6{fill-rule:evenodd;clip-rule:evenodd;fill:url(#SVGID_00000161622639780772373140000015169265348471937170_);}
	.st7{fill:url(#SVGID_00000088850353750277290710000013163164481605701031_);}
	.st8{fill-rule:evenodd;clip-rule:evenodd;fill:url(#SVGID_00000089555152568460081970000005127343548405651109_);}
	.st9{fill:url(#SVGID_00000152221812279845354610000004453045506979196829_);}
	.st10{fill-rule:evenodd;clip-rule:evenodd;fill:url(#SVGID_00000054251134715693101590000014225214141954354049_);}
	.st11{fill:url(#SVGID_00000147935196651784479680000016880178050134083226_);}
	.st12{fill-rule:evenodd;clip-rule:evenodd;fill:url(#SVGID_00000066481734835403450350000001729559686779863962_);}
	.st13{fill:url(#SVGID_00000096017349655370347610000006500285735043221913_);}
	.st14{fill-rule:evenodd;clip-rule:evenodd;fill:url(#SVGID_00000063615523343988566270000011895766796930327718_);}
	.st15{fill-rule:evenodd;clip-rule:evenodd;fill:#FFFFFF;}
	.st16{fill-rule:evenodd;clip-rule:evenodd;fill:#83D8F4;}
	.st17{fill:url(#SVGID_00000154425785184806365320000006365527522626742148_);}
	.st18{fill-rule:evenodd;clip-rule:evenodd;fill:url(#SVGID_00000182490343365610570330000003856719920215075512_);}
	.st19{fill:url(#SVGID_00000109028429518689294200000015927698277867024288_);}
	.st20{fill:url(#SVGID_00000113325348595184114250000013710682944877224596_);}
	.st21{fill:url(#SVGID_00000103988066237894020980000007443543065426355099_);}
	.st22{fill:url(#SVGID_00000132082152911564699960000016176759087765342608_);}
	.st23{fill:url(#SVGID_00000152980986380179543640000011302488685776721074_);}
	.st24{fill:url(#SVGID_00000025429010875763496940000003653814798385705623_);}
	.st25{fill:url(#SVGID_00000176752216431056830350000006518321158974274990_);}
	.st26{fill:url(#SVGID_00000169521114252229847510000008771541576409320343_);}
	.st27{fill:url(#SVGID_00000142151144109369344890000006269199578719961012_);}
	.st28{fill:#F54D75;}
	.st29{fill:#FFFFFF;}
	.st30{fill:#C7EAFF;}
	.st31{fill:#FFBC53;}
	.st32{fill:#4CBEAC;}
	.st33{fill:#FDFDFD;}
	.st34{fill:#FF6977;}
	.st35{fill:#D7D6D8;}
	.st36{fill:#FFB48E;}
	.st37{fill:#777777;}
	.st38{opacity:0.9;fill:#FFFFFF;enable-background:new    ;}
	.st39{fill:#007ABF;}
	.st40{fill:#444444;}
	.st41{fill:#1D66C7;}
</style>
<g>
	<g>
		<path class="st0" d="M14,28c7.7,0,14-6.3,14-14S21.7,0,14,0S0,6.3,0,14S6.3,28,14,28z M14,2c6.6,0,12,5.4,12,12s-5.4,12-12,12
			S2,20.6,2,14S7.4,2,14,2z"/>
		<path class="st0" d="M15.3,21c0.2,0.2,0.4,0.3,0.7,0.3c0.2,0,0.5-0.1,0.7-0.3c0.4-0.4,0.4-1,0-1.4L11,13.9l5.7-5.7
			c0.4-0.4,0.4-1,0-1.4s-1-0.4-1.4,0l-6.4,6.4c-0.2,0.2-0.3,0.4-0.3,0.7s0.1,0.5,0.3,0.7L15.3,21z"/>
	</g>
</g>
<g>
	<g>
		<path class="st1" d="M435,0c-6.6,0-12,5.4-12,12s5.4,12,12,12s12-5.4,12-12S441.6,0,435,0z M441.7,8.8l-7.7,7.6
			c-0.5,0.5-1.2,0.5-1.7,0l-4.1-3.7c-0.5-0.5-0.5-1.2-0.1-1.7c0.5-0.5,1.2-0.5,1.7-0.1l3.2,2.9l6.9-6.9c0.5-0.5,1.2-0.5,1.7,0
			S442.2,8.4,441.7,8.8z"/>
	</g>
</g>
<g>
	
		<linearGradient id="SVGID_1_" gradientUnits="userSpaceOnUse" x1="274.6855" y1="411.55" x2="323.1152" y2="411.55" gradientTransform="matrix(1 0 0 -1 0 488)">
		<stop  offset="0" style="stop-color:#1D66C7;stop-opacity:0.7"/>
		<stop  offset="0" style="stop-color:#2264C9"/>
		<stop  offset="0.7212" style="stop-color:#A726F6"/>
		<stop  offset="1" style="stop-color:#F62681"/>
	</linearGradient>
	<path class="st2" d="M313.3,70h-10v10h4.2v2.9h1.5V80h4.2L313.3,70L313.3,70z M311.8,78.5h-7v-7h7V78.5L311.8,78.5z"/>
	<g>
		
			<linearGradient id="SVGID_00000181051378223744560530000015607973773777048214_" gradientUnits="userSpaceOnUse" x1="274.6855" y1="386" x2="323.1152" y2="386" gradientTransform="matrix(1 0 0 -1 0 488)">
			<stop  offset="0" style="stop-color:#1D66C7;stop-opacity:0.7"/>
			<stop  offset="0" style="stop-color:#2264C9"/>
			<stop  offset="0.7212" style="stop-color:#A726F6"/>
			<stop  offset="1" style="stop-color:#F62681"/>
		</linearGradient>
		<path style="fill:url(#SVGID_00000181051378223744560530000015607973773777048214_);" d="M313.7,123.1H287V80.9h26.7V123.1z
			 M307.2,121.1h4.5V82.9H289v38.2h4.7v-13.3h13.5V121.1z M295.7,120.9h9.5v-11.1h-9.5V120.9z M309.9,105.1h-5.5v-5.5h5.5V105.1z
			 M306.4,103.1h1.5v-1.5h-1.5V103.1z M303.2,105.1h-5.5v-5.5h5.5V105.1z M299.7,103.1h1.5v-1.5h-1.5V103.1z M296.4,105.1h-5.5v-5.5
			h5.5V105.1z M292.9,103.1h1.5v-1.5h-1.5V103.1z M309.9,98.3h-5.5v-5.5h5.5V98.3z M306.4,96.3h1.5v-1.5h-1.5V96.3z M303.2,98.3
			h-5.5v-5.5h5.5V98.3z M299.7,96.3h1.5v-1.5h-1.5V96.3z M296.4,98.3h-5.5v-5.5h5.5V98.3z M292.9,96.3h1.5v-1.5h-1.5V96.3z
			 M309.9,91.4h-5.5v-5.5h5.5V91.4z M306.4,89.4h1.5v-1.5h-1.5V89.4z M303.2,91.4h-5.5v-5.5h5.5V91.4z M299.7,89.4h1.5v-1.5h-1.5
			V89.4z M296.4,91.4h-5.5v-5.5h5.5V91.4z M292.9,89.4h1.5v-1.5h-1.5V89.4z"/>
	</g>
	<g>
		
			<linearGradient id="SVGID_00000010287105249948662230000001013357668633505959_" gradientUnits="userSpaceOnUse" x1="274.6855" y1="412.95" x2="323.1152" y2="412.95" gradientTransform="matrix(1 0 0 -1 0 488)">
			<stop  offset="0" style="stop-color:#1D66C7;stop-opacity:0.7"/>
			<stop  offset="0" style="stop-color:#2264C9"/>
			<stop  offset="0.7212" style="stop-color:#A726F6"/>
			<stop  offset="1" style="stop-color:#F62681"/>
		</linearGradient>
		<path style="fill-rule:evenodd;clip-rule:evenodd;fill:url(#SVGID_00000010287105249948662230000001013357668633505959_);" d="
			M309.4,72.4v1.8h-2.1v-1.9h-1.5v5.3h1.5v-1.9h2.1v2.1h1.5v-5.4H309.4z"/>
		
			<linearGradient id="SVGID_00000082333136563992113160000007815774077346763649_" gradientUnits="userSpaceOnUse" x1="274.6855" y1="375.25" x2="323.1152" y2="375.25" gradientTransform="matrix(1 0 0 -1 0 488)">
			<stop  offset="0" style="stop-color:#1D66C7;stop-opacity:0.7"/>
			<stop  offset="0" style="stop-color:#2264C9"/>
			<stop  offset="0.7212" style="stop-color:#A726F6"/>
			<stop  offset="1" style="stop-color:#F62681"/>
		</linearGradient>
		<path style="fill:url(#SVGID_00000082333136563992113160000007815774077346763649_);" d="M324,121.5h-4.4v-4.8
			c1.1-0.2,2-0.8,2.7-1.7c0.8-1.1,1-2.6,0.5-3.8l-2.8-7.9c-0.2-0.5-0.6-0.8-1.1-0.8s-0.9,0.3-1.1,0.8l-2.8,7.9
			c-0.5,1.3-0.3,2.7,0.5,3.8c0.6,0.9,1.6,1.5,2.7,1.7v4.8H307v-13.1h-13v13.1h-11.4v-4.8c1.1-0.2,2-0.8,2.7-1.7
			c0.8-1.1,1-2.6,0.5-3.8l-2.8-7.9c-0.2-0.5-0.6-0.8-1.1-0.8s-0.9,0.3-1.1,0.8l-2.8,7.9c-0.5,1.3-0.3,2.7,0.5,3.8
			c0.6,0.9,1.6,1.5,2.7,1.7v4.8h-4.5v1.5H324V121.5L324,121.5z M316.6,114.1c-0.5-0.7-0.6-1.6-0.3-2.5l2.5-7l2.5,7
			c0.3,0.8,0.2,1.7-0.3,2.5c-0.5,0.7-1.3,1.2-2.2,1.1C318,115.3,317.1,114.9,316.6,114.1L316.6,114.1z M279.5,114.1
			c-0.5-0.7-0.6-1.6-0.3-2.5l2.5-7l2.5,7c0.3,0.8,0.2,1.7-0.3,2.5c-0.5,0.7-1.3,1.2-2.2,1.1C280.9,115.3,280,114.9,279.5,114.1
			L279.5,114.1z M305.4,121.5h-4.3v-11.6h4.3V121.5z M295.4,109.9h4.2v11.6h-4.2V109.9z"/>
	</g>
</g>
<g>
	<g>
		
			<linearGradient id="SVGID_00000005951339903816477130000014588909659886311584_" gradientUnits="userSpaceOnUse" x1="204.671" y1="380.35" x2="260.4227" y2="380.35" gradientTransform="matrix(1 0 0 -1 0 488)">
			<stop  offset="0" style="stop-color:#1D66C7;stop-opacity:0.7"/>
			<stop  offset="0" style="stop-color:#2264C9"/>
			<stop  offset="0.7212" style="stop-color:#A726F6"/>
			<stop  offset="1" style="stop-color:#F62681"/>
		</linearGradient>
		<path style="fill-rule:evenodd;clip-rule:evenodd;fill:url(#SVGID_00000005951339903816477130000014588909659886311584_);" d="
			M211.5,114.7c-0.5,0-0.8,0.4-0.8,0.8v4.1c0,0.5,0.4,0.8,0.8,0.8c0.5,0,0.8-0.4,0.8-0.8l0,0v-4.1
			C212.3,115.1,211.9,114.7,211.5,114.7L211.5,114.7z M223.1,120.5c0.5,0,0.8-0.4,0.8-0.8v-4.1c0-0.5-0.4-0.8-0.8-0.8
			s-0.8,0.4-0.8,0.8l0,0v4.1C222.2,120.1,222.6,120.5,223.1,120.5z M222.2,94.8H209c-0.9,0-1.7,0.7-1.7,1.7v10.8
			c0,0.5,0.4,0.8,0.8,0.8h4.1c0.5,0,0.8-0.3,0.9-0.8c0-0.5-0.3-0.8-0.8-0.9l0,0H209v-9.9h13.2v4.1c0,0.5,0.4,0.8,0.8,0.8
			c0.5,0,0.8-0.4,0.8-0.8l0,0v-4.1C223.9,95.6,223.1,94.8,222.2,94.8z"/>
		
			<linearGradient id="SVGID_00000046319813841053773480000001926543601037338043_" gradientUnits="userSpaceOnUse" x1="204.671" y1="389.4" x2="260.4227" y2="389.4" gradientTransform="matrix(1 0 0 -1 0 488)">
			<stop  offset="0" style="stop-color:#1D66C7;stop-opacity:0.7"/>
			<stop  offset="0" style="stop-color:#2264C9"/>
			<stop  offset="0.7212" style="stop-color:#A726F6"/>
			<stop  offset="1" style="stop-color:#F62681"/>
		</linearGradient>
		<path style="fill:url(#SVGID_00000046319813841053773480000001926543601037338043_);" d="M242.8,111.5c0.6-0.7,0.9-1.6,0.9-2.6
			c0.2,0,0.4-0.1,0.6-0.3c0.2-0.2,0.2-0.4,0.2-0.6l-0.8-13.2c0-1.4-1.1-2.5-2.5-2.5h-4.1c-0.4,0-0.7,0.2-0.8,0.6l-0.7,2.2l-1.8,1.3
			h-1.7c-0.5,0-0.8,0.4-0.8,0.8h-0.8c-1.4,0-2.5,1.1-2.5,2.5h-1.7v-3.3c0-0.9-0.3-1.8-0.8-2.5h3.3c0.3,0,0.6-0.2,0.8-0.5l1.5-3.3
			l2.1-0.5c0.5-0.1,1-0.3,1.5-0.6c0.8,1,2,1.6,3.3,1.6c2.3,0,4.1-1.9,4.1-4.1v-1.7c0-2.3-1.9-4.1-4.1-4.1c-0.3,0-0.6,0-0.8,0.1v-2.5
			c0-2.3-1.9-4.1-4.1-4.1h-19c-2.3,0-4.1,1.9-4.1,4.1v11.6c0,1,0.2,1.8,0.6,2.5H209c-2.3,0-4.1,1.9-4.1,4.1v10.8
			c0,1.8,1.5,3.3,3.3,3.3h6.6v1.7H209c-0.5,0-0.8,0.4-0.8,0.8v9.1c0,0.5,0.4,0.8,0.8,0.8h16.6c0.5,0,0.8-0.4,0.8-0.8v-9.1
			c0-0.5-0.4-0.8-0.8-0.8h-4.1v-1.7h4.1c0.5,0,0.8-0.4,0.8-0.8v-8.3h8.3c0.3,0,0.6,0,0.8-0.1v5.9h-3.3c-1.8,0-3.3,1.5-3.3,3.3v8.6
			l-1.2,0.6c-0.3,0.1-0.5,0.4-0.5,0.7v1.7c0,0.5,0.4,0.8,0.8,0.8h5c0.5,0,0.8-0.4,0.8-0.8l0,0v-9.1h1c-0.1,0.3-0.2,0.5-0.2,0.8
			c0,1.4,1.1,2.5,2.5,2.5h1.7v3.3h-2.5c-0.5,0-0.8,0.4-0.8,0.8l0,0v1.7c0,0.5,0.4,0.8,0.8,0.8s0.8-0.4,0.8-0.8v-0.8h5v0.8
			c0,0.5,0.4,0.8,0.8,0.8s0.8-0.4,0.8-0.8v-1.7c0-0.5-0.4-0.8-0.8-0.8l0,0h-2.5v-3.3h1.7c1.4,0,2.5-1.1,2.5-2.5
			C244.6,112.8,243.8,111.8,242.8,111.5L242.8,111.5z M228.3,92.4h-7l7.7-1.7L228.3,92.4z M238,82.4c1.4,0,2.5,1.1,2.5,2.5v1.7
			c0,1.4-1.1,2.5-2.5,2.5c-0.8,0-1.6-0.4-2-1c0.7-0.9,1.2-2,1.2-3.1v-2.3C237.4,82.5,237.7,82.4,238,82.4L238,82.4z M211.5,78.3
			c0-1.4,1.1-2.5,2.5-2.5h19c1.4,0,2.5,1.1,2.5,2.5v6.6c0,0.9-0.5,1.8-1.1,2.4l0,0c-0.4,0.4-0.9,0.6-1.4,0.8l-2.6,0.6l-16.5,3.7
			c-1,0-2.3-0.3-2.3-2.5L211.5,78.3L211.5,78.3z M219.7,110.6v1.7h-3.3v-1.7H219.7z M224.7,113.9v7.5h-14.9v-7.5H224.7L224.7,113.9z
			 M224.7,108.9h-16.6c-0.9,0-1.7-0.7-1.7-1.7V96.5c0-1.4,1.1-2.5,2.5-2.5h13.2c1.4,0,2.5,1.1,2.5,2.5L224.7,108.9L224.7,108.9z
			 M230.5,99h0.8v0.8h-1.7C229.7,99.4,230,99,230.5,99z M233,99.8v-1.7h1.1c0.2,0,0.4-0.1,0.5-0.2l2.2-1.7c0.1-0.1,0.2-0.2,0.3-0.4
			l0.6-1.9h3.5c0.5,0,0.8,0.4,0.8,0.9l0.8,12.4h-5.7v-7l2.3-1.7c0.4-0.3,0.4-0.8,0.2-1.2l0,0c-0.3-0.4-0.8-0.4-1.2-0.2l0,0l-3.3,2.5
			c-0.1,0.1-0.3,0.2-0.5,0.2L233,99.8L233,99.8z M228.8,121.3V121l1.2-0.6c0.3-0.1,0.5-0.4,0.5-0.7v-0.8h1.7v2.5L228.8,121.3
			L228.8,121.3z M233,111.4c-0.5,0-0.8,0.4-0.8,0.8l0,0v5h-1.7v-6.6c0-0.9,0.7-1.7,1.7-1.7h9.9c0,1.4-1.1,2.5-2.5,2.5
			C239.6,111.4,233,111.4,233,111.4z M242.1,114.7h-5c-0.5,0-0.8-0.4-0.8-0.9c0-0.4,0.4-0.8,0.8-0.8h2.5c0.2,0,0.4,0,0.6-0.1
			c0.1,0,0.2,0.1,0.3,0.1h1.7c0.5,0,0.8,0.4,0.8,0.8C243,114.2,242.6,114.7,242.1,114.7L242.1,114.7z"/>
		
			<linearGradient id="SVGID_00000083776030415791041420000006570140285313694895_" gradientUnits="userSpaceOnUse" x1="204.671" y1="395.6125" x2="260.4227" y2="395.6125" gradientTransform="matrix(1 0 0 -1 0 488)">
			<stop  offset="0" style="stop-color:#1D66C7;stop-opacity:0.7"/>
			<stop  offset="0" style="stop-color:#2264C9"/>
			<stop  offset="0.7212" style="stop-color:#A726F6"/>
			<stop  offset="1" style="stop-color:#F62681"/>
		</linearGradient>
		<path style="fill-rule:evenodd;clip-rule:evenodd;fill:url(#SVGID_00000083776030415791041420000006570140285313694895_);" d="
			M212.7,91.3c0.2,0.1,0.5,0.2,0.8,0.3c0.1,0,0.2,0,0.3,0l18.9-4.2c1-0.2,1.9-1.3,1.9-2.4v-2.5c0-0.5-0.4-0.8-0.8-0.8
			c-0.5,0-0.8,0.4-0.8,0.8V85c0,0.2-0.4,0.7-0.6,0.7L214,89.8v-5.7c0-0.5-0.3-0.8-0.8-0.9c-0.5,0-0.8,0.3-0.9,0.8l0,0v5.8
			c0,0.3,0,0.9,0.3,1.2C212.6,91.2,212.7,91.2,212.7,91.3L212.7,91.3z M213.1,81.6c0.2,0,0.4-0.1,0.6-0.2c0.1-0.2,0.2-0.4,0.2-0.6
			s-0.1-0.4-0.2-0.6c-0.3-0.3-0.9-0.3-1.2,0c-0.1,0.1-0.2,0.4-0.2,0.6s0.1,0.4,0.2,0.6C212.7,81.5,212.9,81.6,213.1,81.6L213.1,81.6
			z M219.7,78.3h8.3c0.5,0,0.8-0.4,0.8-0.8c0-0.5-0.4-0.8-0.8-0.8l0,0h-8.3c-0.5,0-0.8,0.4-0.8,0.8S219.3,78.3,219.7,78.3
			L219.7,78.3z M230.5,78.3c0.2,0,0.4-0.1,0.6-0.2c0.1-0.2,0.2-0.4,0.2-0.6s-0.1-0.4-0.2-0.6c-0.3-0.3-0.9-0.3-1.2,0
			c-0.2,0.2-0.2,0.4-0.2,0.6s0.1,0.4,0.2,0.6C230.1,78.2,230.3,78.3,230.5,78.3z M218.9,106.4h-3.3c-0.5,0-0.8,0.3-0.9,0.8
			c0,0.5,0.3,0.8,0.8,0.9l0,0h3.3c0.5,0,0.8-0.3,0.9-0.8C219.8,106.8,219.4,106.5,218.9,106.4L218.9,106.4L218.9,106.4z
			 M221.6,106.7c-0.2,0.2-0.2,0.4-0.2,0.6s0.1,0.4,0.2,0.6c0.2,0.1,0.4,0.2,0.6,0.2s0.4-0.1,0.6-0.2c0.1-0.2,0.2-0.4,0.2-0.6
			s-0.1-0.4-0.2-0.6C222.5,106.4,221.9,106.4,221.6,106.7z M249.7,77.5c-0.5,0-0.8,0.4-0.8,0.8c0,0.5,0.4,0.8,0.8,0.8
			c0.3,0,1,0.2,1.6,0.9c0.6,0.6,0.8,1.1,0.9,1.4c-0.2,0.4,0,0.9,0.4,1.1c0.1,0.1,0.2,0.1,0.4,0.1c0.1,0,0.2,0,0.2,0
			c0.4,0,0.7-0.3,0.7-0.7c0.1-0.7-0.3-1.9-1.4-3C251.6,78,250.5,77.5,249.7,77.5z"/>
		
			<linearGradient id="SVGID_00000140703580544715558900000000580946170492811157_" gradientUnits="userSpaceOnUse" x1="204.671" y1="410.5" x2="260.4227" y2="410.5" gradientTransform="matrix(1 0 0 -1 0 488)">
			<stop  offset="0" style="stop-color:#1D66C7;stop-opacity:0.7"/>
			<stop  offset="0" style="stop-color:#2264C9"/>
			<stop  offset="0.7212" style="stop-color:#A726F6"/>
			<stop  offset="1" style="stop-color:#F62681"/>
		</linearGradient>
		<path style="fill:url(#SVGID_00000140703580544715558900000000580946170492811157_);" d="M256.3,70c-0.5,0-0.8,0.4-0.8,0.8l0,0
			v3.8l-1.9,1.9c-1.2-1-2.6-1.6-3.9-1.6c-1,0-1.9,0.3-2.5,1c-0.8,0.8-1.1,2-0.9,3.4c0.3,1.3,1,2.5,2,3.6c1.3,1.3,3,2.1,4.6,2.1
			c1,0,1.8-0.3,2.5-1c0.8-0.8,1.1-2,0.9-3.4c-0.2-1-0.7-2.1-1.5-3l2.2-2.2c0.2-0.2,0.2-0.4,0.2-0.6v-4C257.2,70.4,256.8,70,256.3,70
			z M254.2,82.9c-0.4,0.4-0.9,0.5-1.3,0.5c-1.1,0-2.4-0.6-3.4-1.6c-0.8-0.8-1.4-1.8-1.5-2.8c-0.1-0.5-0.2-1.4,0.4-1.9
			c0.4-0.4,0.9-0.5,1.3-0.5c1.1,0,2.4,0.6,3.4,1.6c0.8,0.8,1.4,1.8,1.6,2.7C254.7,81.5,254.8,82.4,254.2,82.9z"/>
	</g>
</g>
<g>
	
		<linearGradient id="SVGID_00000124848308473685643690000000335902287654804141_" gradientUnits="userSpaceOnUse" x1="346.2017" y1="400.6" x2="396.9606" y2="400.6" gradientTransform="matrix(1 0 0 -1 0 488)">
		<stop  offset="0" style="stop-color:#1D66C7;stop-opacity:0.7"/>
		<stop  offset="0" style="stop-color:#2264C9"/>
		<stop  offset="0.7212" style="stop-color:#A726F6"/>
		<stop  offset="1" style="stop-color:#F62681"/>
	</linearGradient>
	<path style="fill-rule:evenodd;clip-rule:evenodd;fill:url(#SVGID_00000124848308473685643690000000335902287654804141_);" d="
		M394.4,99c0,0.5,0.3,0.8,0.8,0.8s0.8-0.3,0.8-0.8l0,0c0-7.2-5.2-13.4-12.3-14.7c-0.4-0.1-0.9,0.2-1,0.7l0,0c-0.1,0.5,0.2,0.9,0.7,1
		C389.8,87.1,394.4,92.6,394.4,99z M358,75h-1.7c-0.5,0-0.8,0.4-0.8,0.8c0,0.5,0.4,0.8,0.8,0.8h1.7c0.5,0,0.8-0.4,0.8-0.8
		C358.9,75.3,358.5,75,358,75z M378.7,77.5c0.2,0,0.4-0.1,0.6-0.2c0.1-0.2,0.2-0.4,0.2-0.6s-0.1-0.4-0.2-0.6c-0.3-0.3-0.9-0.3-1.2,0
		c-0.2,0.2-0.2,0.4-0.2,0.6s0.1,0.4,0.2,0.6C378.3,77.4,378.5,77.5,378.7,77.5z"/>
	
		<linearGradient id="SVGID_00000032650708807553075580000005535398757607215236_" gradientUnits="userSpaceOnUse" x1="346.2017" y1="381.55" x2="396.9606" y2="381.55" gradientTransform="matrix(1 0 0 -1 0 488)">
		<stop  offset="0" style="stop-color:#1D66C7;stop-opacity:0.7"/>
		<stop  offset="0" style="stop-color:#2264C9"/>
		<stop  offset="0.7212" style="stop-color:#A726F6"/>
		<stop  offset="1" style="stop-color:#F62681"/>
	</linearGradient>
	<path style="fill:url(#SVGID_00000032650708807553075580000005535398757607215236_);" d="M391.1,105.6c0-1.4-1.1-2.5-2.5-2.5H387
		c-1.4,0-2.5,1.1-2.5,2.5v1.7c0,1.4,1.1,2.5,2.5,2.5h1.7c1.4,0,2.5-1.1,2.5-2.5v-1.7H391.1z M389.5,107.3c0,0.5-0.4,0.8-0.8,0.8H387
		c-0.5,0-0.8-0.4-0.8-0.8v-1.7c0-0.5,0.4-0.8,0.8-0.8h1.7c0.5,0,0.8,0.4,0.8,0.8V107.3z"/>
	
		<linearGradient id="SVGID_00000052071730265603208500000009053855461845823398_" gradientUnits="userSpaceOnUse" x1="346.2017" y1="400.6" x2="396.9606" y2="400.6" gradientTransform="matrix(1 0 0 -1 0 488)">
		<stop  offset="0" style="stop-color:#1D66C7;stop-opacity:0.7"/>
		<stop  offset="0" style="stop-color:#2264C9"/>
		<stop  offset="0.7212" style="stop-color:#A726F6"/>
		<stop  offset="1" style="stop-color:#F62681"/>
	</linearGradient>
	<path style="fill-rule:evenodd;clip-rule:evenodd;fill:url(#SVGID_00000052071730265603208500000009053855461845823398_);" d="
		M378.3,85.8l-3.3,1.7c-0.4,0.2-0.5,0.7-0.3,1.1s0.7,0.5,1.1,0.4l3.3-1.7c0.4-0.2,0.5-0.7,0.3-1.1C379.2,85.8,378.7,85.7,378.3,85.8
		z"/>
	
		<linearGradient id="SVGID_00000070817236202274834190000010163513899043183017_" gradientUnits="userSpaceOnUse" x1="346.2017" y1="391.55" x2="396.9606" y2="391.55" gradientTransform="matrix(1 0 0 -1 0 488)">
		<stop  offset="0" style="stop-color:#1D66C7;stop-opacity:0.7"/>
		<stop  offset="0" style="stop-color:#2264C9"/>
		<stop  offset="0.7212" style="stop-color:#A726F6"/>
		<stop  offset="1" style="stop-color:#F62681"/>
	</linearGradient>
	<path style="fill:url(#SVGID_00000070817236202274834190000010163513899043183017_);" d="M393,111.7c3.5-3.3,5.5-7.8,5.5-12.7
		c0-9.6-7.8-17.4-17.4-17.4c-0.1,0-0.2,0-0.3,0.1l0,0l0,0l-0.5,0.2v-2h13.2c0.5,0,0.8-0.4,0.8-0.8V75c0-2.7-2.2-5-5-5l0,0l-19.8,1.7
		h-0.1c-0.6,0.1-1.1,0.4-1.6,0.8h-12.3c-1.4,0-2.5,1.1-2.5,2.5v5c0,1.4,1.1,2.5,2.5,2.5v0.8c-1.4,0-2.5,1.1-2.5,2.5v5.4l-3,1.4
		c-0.9,0.4-1.5,1.4-1.6,2.4l-2.3,0.9c-0.4,0.2-0.6,0.7-0.4,1.1s0.6,0.6,1.1,0.5l2.1-0.8c0.6,0.9,1.7,1.4,2.7,1l1.9-0.6
		c0.5,0.7,1.2,1.1,2.1,1.1h1.7c1.4,0,2.5-1.1,2.5-2.5v-0.6l2-0.6c0.6-0.2,1.2-0.6,1.5-1.2s0.4-1.3,0.1-1.9l-0.6-1.8
		c-0.3-1-1.2-1.6-2.2-1.6c-0.3,0-0.5,0-0.8,0.1v-2.4c0-1.4-1.1-2.5-2.5-2.5v-0.8c1.4,0,2.5-1.1,2.5-2.5v-0.8c0-0.5,0.4-0.8,0.8-0.8
		h5c0,0.3,0,0.5,0,0.8c0,0.5,0.4,0.8,0.8,0.8l0,0h7.4v4.6c-1,0.6-1.7,1.7-1.7,2.8v24h-8.3c-1.4,0-2.5,1.1-2.5,2.5v6.6
		c0,1.4,1.1,2.5,2.5,2.5h19.8c0.3,0,0.5-0.1,0.7-0.4l3.1-4.6l0,0c-0.3,0.5-0.5,1.1-0.5,1.7c0,1.8,1.5,3.3,3.3,3.3s3.3-1.5,3.3-3.3
		c0-0.6-0.2-1.2-0.5-1.7h0.5c0.5,0,0.8-0.4,0.8-0.8v-3.3C394.4,112.9,393.9,112.1,393,111.7z M382,83.3c8.3,0.4,14.9,7.3,14.9,15.7
		c0,4.9-2.2,9.4-6.1,12.4H382V83.3L382,83.3z M351.1,96c-0.4,0.1-0.8-0.1-0.9-0.5c0,0,0,0,0-0.1v-0.1c-0.1-0.5,0.2-1.1,0.6-1.4
		l2.3-1.1v2.4L351.1,96L351.1,96z M360.2,89.7c0.4-0.2,0.8,0,0.9,0.4l0.6,1.8c0.1,0.2,0.1,0.4,0,0.6s-0.3,0.3-0.5,0.4l-1.5,0.5V90
		C359.7,89.9,360.2,89.7,360.2,89.7z M358,85.7v9.9c0,0.5-0.4,0.8-0.8,0.8h-1.7c-0.4,0-0.7-0.3-0.8-0.7v-0.1v-0.1v-9.9
		c0-0.5,0.4-0.8,0.8-0.8h1.7C357.7,84.9,358,85.3,358,85.7z M367.2,78.3c0-0.2,0-0.4,0.1-0.6c0-0.1,0-0.1,0-0.2
		c0-0.5-0.4-0.8-0.8-0.8h-0.1h-5.8c-1.4,0-2.5,1.1-2.5,2.5V80c0,0.5-0.4,0.8-0.8,0.8h-1.7c-0.5,0-0.8-0.4-0.8-0.8v-5
		c0-0.5,0.4-0.8,0.8-0.8h12.6c0.2,0,0.4-0.1,0.6-0.2c0.3-0.3,0.6-0.5,1-0.6l19.7-1.6c1.8,0,3.3,1.5,3.3,3.3v0.8h-11.6
		c-0.5,0-0.8,0.4-0.8,0.8s0.4,0.8,0.8,0.8h11.6v0.8L367.2,78.3L367.2,78.3z M378.7,79.9v2.6l-3.3,1.3v-3.9H378.7z M373.8,87.4
		c0-0.6,0.5-1.3,1-1.5h0.1l0,0l5-2l0.5-0.2v27.8h-6.6C373.8,111.4,373.8,87.4,373.8,87.4z M390.3,121.3c-0.9,0-1.7-0.7-1.7-1.7
		c0-0.9,0.7-1.7,1.7-1.7c0.9,0,1.7,0.7,1.7,1.7C391.9,120.6,391.2,121.3,390.3,121.3z M392.8,116.4H387c-0.3,0-0.5,0.1-0.7,0.4
		l-3.1,4.6h-19.4c-0.5,0-0.8-0.4-0.8-0.8v-4.1h8.3c0.5,0,0.8-0.4,0.8-0.8s-0.4-0.8-0.8-0.8H363v-0.8c0-0.5,0.4-0.8,0.8-0.8h28.1
		c0.5,0,0.8,0.4,0.8,0.8v2.3C392.7,116.4,392.8,116.4,392.8,116.4z"/>
	
		<linearGradient id="SVGID_00000152973331151502441880000005550582750064061587_" gradientUnits="userSpaceOnUse" x1="346.2017" y1="386.1125" x2="396.9606" y2="386.1125" gradientTransform="matrix(1 0 0 -1 0 488)">
		<stop  offset="0" style="stop-color:#1D66C7;stop-opacity:0.7"/>
		<stop  offset="0" style="stop-color:#2264C9"/>
		<stop  offset="0.7212" style="stop-color:#A726F6"/>
		<stop  offset="1" style="stop-color:#F62681"/>
	</linearGradient>
	<path style="fill-rule:evenodd;clip-rule:evenodd;fill:url(#SVGID_00000152973331151502441880000005550582750064061587_);" d="
		M374,115c-0.2,0.2-0.2,0.4-0.2,0.6s0.1,0.4,0.2,0.6c0.2,0.1,0.4,0.2,0.6,0.2s0.4-0.1,0.6-0.2c0.1-0.2,0.2-0.4,0.2-0.6
		s-0.1-0.4-0.2-0.6C374.9,114.7,374.3,114.7,374,115L374,115z M355.8,87.6c-0.2,0.2-0.2,0.4-0.2,0.6s0.1,0.4,0.2,0.6
		s0.4,0.2,0.6,0.2s0.4-0.1,0.6-0.2c0.1-0.2,0.2-0.4,0.2-0.6s-0.1-0.4-0.2-0.6C356.7,87.3,356.1,87.3,355.8,87.6z M355.8,91.8
		c-0.2,0.2-0.2,0.4-0.2,0.6s0.1,0.4,0.2,0.6c0.2,0.2,0.4,0.2,0.6,0.2s0.4-0.1,0.6-0.2c0.1-0.2,0.2-0.4,0.2-0.6s-0.1-0.4-0.2-0.6
		C356.7,91.5,356.1,91.5,355.8,91.8z"/>
</g>
<g>
	<ellipse class="st15" cx="156.9" cy="110.6" rx="2.5" ry="2.5"/>
	<path class="st16" d="M173,92l-3.4,2.5"/>
	<path class="st15" d="M170.4,119.7l-1.7,0.8v1.7h5v-3.3h-3.4L170.4,119.7L170.4,119.7z M175.4,79.1c0-1.8-1.5-3.3-3.4-3.3
		s-3.4,1.5-3.4,3.3v1.7c0,1.8,1.5,3.3,3.4,3.3s3.4-1.5,3.4-3.3V79.1z M163.6,92.4v-2.5H162c-0.9,0-1.7,0.7-1.7,1.7v0.8H163.6z
		 M151.1,94c0-0.6,0.2-1.2,0.5-1.7h-4.7c-0.9,0-1.7,0.7-1.7,1.7v1.7c0,0.9,0.8,1.7,1.7,1.7h7.5C152.6,97.3,151.1,95.8,151.1,94z
		 M162,92.4h-4.7c0.3,0.5,0.5,1,0.5,1.7c0,1.8-1.5,3.3-3.4,3.3h7.5c0.9,0,1.7-0.7,1.7-1.7V94C163.6,93.1,162.9,92.4,162,92.4z"/>
	<ellipse class="st15" cx="154.4" cy="94" rx="3.4" ry="3.3"/>
	<g>
		
			<linearGradient id="SVGID_00000144330707175514666490000013892910659427172795_" gradientUnits="userSpaceOnUse" x1="141.1" y1="389" x2="178.3" y2="389" gradientTransform="matrix(1 0 0 -1 0 488)">
			<stop  offset="0" style="stop-color:#1D66C7;stop-opacity:0.7"/>
			<stop  offset="0" style="stop-color:#2264C9"/>
			<stop  offset="0.7212" style="stop-color:#A726F6"/>
			<stop  offset="1" style="stop-color:#F62681"/>
		</linearGradient>
		<path style="fill:url(#SVGID_00000144330707175514666490000013892910659427172795_);" d="M172,84.9c2.3,0,4.2-1.9,4.2-4.1v-1.7
			c0-2.3-1.9-4.1-4.2-4.1s-4.2,1.9-4.2,4.1v1.7C167.8,83,169.7,84.9,172,84.9z M169.5,79.1c0-1.4,1.1-2.5,2.5-2.5s2.5,1.1,2.5,2.5
			v1.7c0,1.4-1.1,2.5-2.5,2.5s-2.5-1.1-2.5-2.5V79.1L169.5,79.1z M177.9,89c0-1.4-1.1-2.5-2.5-2.5h-4.2c-0.3,0-0.6,0.2-0.8,0.5
			l-0.8,1.5l-1.8,1.3l-4.1-0.8c-0.1,0-0.1,0-0.2,0H162c-1.4,0-2.5,1.1-2.5,2.5h-1.7c-0.8-1-2-1.7-3.3-1.7s-2.5,0.6-3.3,1.7H147
			c-1.4,0-2.5,1.1-2.5,2.5v1.7c0,0.3,0.1,0.6,0.1,0.8h-1c-1.4,0-2.5,1.1-2.5,2.5v3.3c0,1.4,1.1,2.5,2.5,2.5h7.5v12.4h-3.4
			c-1.4,0-2.5,1.1-2.5,2.5v2.5c0,0.5,0.4,0.8,0.8,0.8h16.8c0.5,0,0.8-0.4,0.8-0.8v-2.5c0-1.4-1.1-2.5-2.5-2.5h-3.4v-3.4
			c1.4-0.4,2.5-1.7,2.5-3.2s-1.1-2.8-2.5-3.2v-2.6h7.5c1.4,0,2.5-1.1,2.5-2.5V99c0-1.4-1.1-2.5-2.5-2.5h-1c0.1-0.3,0.1-0.5,0.1-0.8
			v-1.3l3.9,1.3c0.4,0.1,0.8,0,1.1-0.1v23.6l-1.2,0.6c-0.3,0.1-0.5,0.4-0.5,0.7v1.7c0,0.5,0.4,0.8,0.8,0.8h5c0.5,0,0.8-0.4,0.8-0.8
			v-2.5c0.5,0,0.8-0.4,0.8-0.8v-6.5l2.3-6.8h0.2c0.2,0,0.5-0.1,0.6-0.3c0.2-0.2,0.2-0.4,0.2-0.6L177.9,89L177.9,89z M162.8,94v1.7
			c0,0.5-0.4,0.8-0.8,0.8h-4.2c0.5-0.7,0.9-1.5,0.9-2.5c0-0.3,0-0.6-0.1-0.8h3.4C162.4,93.2,162.8,93.6,162.8,94z M162,90.7h0.8v0.8
			h-1.7C161.1,91.1,161.5,90.7,162,90.7z M154.4,91.5c0.9,0,1.7,0.5,2.2,1.2c0.2,0.4,0.4,0.8,0.4,1.2c0,1.4-1.1,2.5-2.5,2.5
			s-2.5-1.1-2.5-2.5c0-0.4,0.1-0.8,0.4-1.2C152.7,92,153.5,91.5,154.4,91.5L154.4,91.5z M146,94c0-0.5,0.4-0.8,0.8-0.8h3.5
			c-0.1,0.3-0.1,0.5-0.1,0.8c0,0.9,0.3,1.8,0.9,2.5h-4.2c-0.5,0-0.8-0.4-0.8-0.8L146,94L146,94z M156.1,104.8v2.6
			c-1.4,0.4-2.5,1.7-2.5,3.2s1.1,2.8,2.5,3.2v3.4h-3.4v-12.4C152.7,104.8,156.1,104.8,156.1,104.8z M161.1,118.9
			c0.5,0,0.8,0.4,0.8,0.8v1.7h-15.1v-1.7c0-0.5,0.4-0.8,0.8-0.8H161.1z M158.6,110.6c0,0.9-0.8,1.7-1.7,1.7s-1.7-0.7-1.7-1.7
			c0-0.9,0.8-1.7,1.7-1.7C157.9,108.9,158.6,109.7,158.6,110.6z M165.3,98.2c0.5,0,0.8,0.4,0.8,0.8v3.3c0,0.5-0.4,0.8-0.8,0.8h-21.8
			c-0.5,0-0.8-0.4-0.8-0.8v-0.8h3.4c0.5,0,0.8-0.4,0.8-0.8c0-0.5-0.4-0.8-0.8-0.8h-3.4V99c0-0.5,0.4-0.8,0.8-0.8H165.3z M164.5,92.6
			v-1.7l3.5,0.6c0.2,0,0.5,0,0.7-0.2l2.2-1.7c0.1-0.1,0.2-0.2,0.2-0.3l0.6-1.2h3.7c0.5,0,0.8,0.4,0.8,0.9l0.8,15h-5.8v-9.5l2.3-1.7
			c0.4-0.3,0.4-0.8,0.2-1.1l0,0c-0.3-0.4-0.8-0.4-1.2-0.2l-3.4,2.5l0,0c-0.1,0.1-0.2,0.1-0.4,0.2L164.5,92.6L164.5,92.6z
			 M169.5,121.3V121l1.2-0.6c0.3-0.1,0.5-0.4,0.5-0.7h1.7v1.7C172.9,121.3,169.5,121.3,169.5,121.3z M173.8,112c0,0.1,0,0.2,0,0.3
			v5.7h-2.5v-12.4h4.7C175.9,105.6,173.8,112,173.8,112z"/>
		
			<linearGradient id="SVGID_00000103987955055202002140000000364079669137675651_" gradientUnits="userSpaceOnUse" x1="147.8" y1="382.4" x2="165.3" y2="382.4" gradientTransform="matrix(1 0 0 -1 0 488)">
			<stop  offset="0" style="stop-color:#1D66C7;stop-opacity:0.7"/>
			<stop  offset="0" style="stop-color:#2264C9"/>
			<stop  offset="0.7212" style="stop-color:#A726F6"/>
			<stop  offset="1" style="stop-color:#F62681"/>
		</linearGradient>
		<path style="fill-rule:evenodd;clip-rule:evenodd;fill:url(#SVGID_00000103987955055202002140000000364079669137675651_);" d="
			M148,100.1c-0.2,0.2-0.2,0.4-0.2,0.6s0.1,0.4,0.2,0.6c0.2,0.1,0.4,0.2,0.6,0.2c0.2,0,0.4-0.1,0.6-0.2c0.2-0.2,0.2-0.4,0.2-0.6
			s-0.1-0.4-0.2-0.6C148.8,99.7,148.3,99.7,148,100.1z M157.8,99.8c-0.5,0-0.8,0.4-0.8,0.8c0,0.5,0.4,0.8,0.8,0.8h4.2
			c0.5,0,0.8-0.4,0.8-0.8c0-0.5-0.4-0.8-0.8-0.8H157.8z M164.5,101.5c0.2,0,0.4-0.1,0.6-0.2c0.2-0.2,0.2-0.4,0.2-0.6
			s-0.1-0.4-0.2-0.6c-0.3-0.3-0.9-0.3-1.2,0c-0.2,0.2-0.2,0.4-0.2,0.6s0.1,0.4,0.2,0.6C164.1,101.4,164.3,101.5,164.5,101.5z
			 M156.3,110c-0.2,0.2-0.2,0.4-0.2,0.6s0.1,0.4,0.2,0.6c0.2,0.1,0.4,0.2,0.6,0.2c0.2,0,0.4-0.1,0.6-0.2c0.2-0.2,0.2-0.4,0.2-0.6
			s-0.1-0.4-0.2-0.6C157.2,109.7,156.7,109.7,156.3,110z"/>
		
			<linearGradient id="SVGID_00000150062036472663302100000004932123662457567360_" gradientUnits="userSpaceOnUse" x1="138.3" y1="408.25" x2="150.625" y2="408.25" gradientTransform="matrix(1 0 0 -1 0 488)">
			<stop  offset="0" style="stop-color:#1D66C7;stop-opacity:0.7"/>
			<stop  offset="0" style="stop-color:#2264C9"/>
			<stop  offset="0.7212" style="stop-color:#A726F6"/>
			<stop  offset="1" style="stop-color:#F62681"/>
		</linearGradient>
		<path style="fill:url(#SVGID_00000150062036472663302100000004932123662457567360_);" d="M144.9,88.2l2.5,0.8
			c0.3,0.1,0.6,0,0.9-0.2l0.2-0.2l0.7,0.7c0.2,0.2,0.4,0.2,0.6,0.2c0.2,0,0.4-0.1,0.6-0.2c0.3-0.3,0.3-0.8,0-1.2l0,0l-0.7-0.7
			l0.2-0.2c0.2-0.2,0.3-0.6,0.2-0.8l-0.8-2.5c0-0.1-0.1-0.2-0.2-0.3l-4.1-4.3c-0.2-0.2-0.4-0.4-0.7-0.5v-3.3
			c0.5-0.6,0.8-1.4,0.8-2.2c0-1.8-1.5-3.3-3.4-3.3c-1.8,0-3.4,1.5-3.4,3.3c0,0.8,0.3,1.6,0.8,2.2v6.1c0,0.9,0.3,1.7,1,2.4l4.3,4
			C144.7,88.1,144.8,88.1,144.9,88.2z M141.8,76.6c0.3,0,0.6,0,0.8-0.1v1.8c-0.6,0-1.2,0.1-1.7,0.4v-2.2
			C141.3,76.6,141.6,76.6,141.8,76.6z M141.8,71.7c0.9,0,1.7,0.7,1.7,1.7c0,0.5-0.2,0.9-0.6,1.2l0,0c-0.2,0.2-0.6,0.4-1.1,0.4
			s-0.9-0.2-1.1-0.4l0,0c-0.4-0.3-0.6-0.8-0.6-1.2C140.2,72.4,140.9,71.7,141.8,71.7L141.8,71.7z M141,81.6c0-0.4,0.2-0.9,0.5-1.2
			c0.4-0.4,1.1-0.6,1.7-0.4l0,0c0.2,0.1,0.5,0.2,0.6,0.4l4,4.1l0.6,1.8l-0.9,0.9l-1.8-0.6l-0.1-0.1l1.1-1.1c0.3-0.3,0.3-0.8,0-1.2
			l0,0c-0.3-0.3-0.9-0.3-1.2,0l-1.1,1.1l-2.8-2.7C141.2,82.5,141,82,141,81.6L141,81.6z"/>
	</g>
</g>
<g>
	
		<linearGradient id="SVGID_00000068655308924503272330000000697346952914379414_" gradientUnits="userSpaceOnUse" x1="136.7213" y1="301.25" x2="187.9737" y2="301.25" gradientTransform="matrix(1 0 0 -1 0 488)">
		<stop  offset="0" style="stop-color:#1D66C7;stop-opacity:0.7"/>
		<stop  offset="0" style="stop-color:#2264C9"/>
		<stop  offset="0.7" style="stop-color:#A726F6"/>
		<stop  offset="1" style="stop-color:#F62681"/>
	</linearGradient>
	<path style="fill:url(#SVGID_00000068655308924503272330000000697346952914379414_);" d="M164.3,174c-3.9,0-10.8,2.2-10.8,6.6V192
		c0,2.7,1.9,4.7,4.5,4.7v2.8h1.8v-15.1H158v10.4c-1.6,0-2.7-1.1-2.7-2.8v-11.4c0-2.9,5.9-4.7,9-4.7s9,1.8,9,4.7V192
		c0,1.6-1.1,2.8-2.7,2.8v-10.4h-1.8v15.1h1.8v-2.8c2.6,0,4.5-2,4.5-4.7v-11.4C175.1,176.2,168.2,174,164.3,174z"/>
	
		<linearGradient id="SVGID_00000104680873596275843710000000175922690375846829_" gradientUnits="userSpaceOnUse" x1="136.7213" y1="321.6" x2="187.9737" y2="321.6" gradientTransform="matrix(1 0 0 -1 0 488)">
		<stop  offset="0" style="stop-color:#1D66C7;stop-opacity:0.7"/>
		<stop  offset="0" style="stop-color:#2264C9"/>
		<stop  offset="0.7" style="stop-color:#A726F6"/>
		<stop  offset="1" style="stop-color:#F62681"/>
	</linearGradient>
	<path style="fill:url(#SVGID_00000104680873596275843710000000175922690375846829_);" d="M158.9,165.6v1.6c0,3.2,2.4,5.8,5.4,5.8
		s5.4-2.6,5.4-5.8v-1.6c0-3.2-2.4-5.8-5.4-5.8S158.9,162.4,158.9,165.6z M160.7,165.6c0-2.2,1.6-3.9,3.6-3.9s3.6,1.7,3.6,3.9v1.6
		c0,2.2-1.6,3.9-3.6,3.9s-3.6-1.7-3.6-3.9V165.6z"/>
	
		<linearGradient id="SVGID_00000150065148845330071220000013902475684540827524_" gradientUnits="userSpaceOnUse" x1="136.7213" y1="334.9" x2="187.9737" y2="334.9" gradientTransform="matrix(1 0 0 -1 0 488)">
		<stop  offset="0" style="stop-color:#1D66C7;stop-opacity:0.7"/>
		<stop  offset="0" style="stop-color:#2264C9"/>
		<stop  offset="0.7" style="stop-color:#A726F6"/>
		<stop  offset="1" style="stop-color:#F62681"/>
	</linearGradient>
	<path style="fill:url(#SVGID_00000150065148845330071220000013902475684540827524_);" d="M157.1,159.7c3,0,5.4-2.6,5.4-5.8v-1.6
		c0-3.2-2.4-5.8-5.4-5.8s-5.4,2.6-5.4,5.8v1.6C151.7,157.1,154.1,159.7,157.1,159.7z M153.5,152.3c0-2.2,1.6-3.9,3.6-3.9
		s3.6,1.7,3.6,3.9v1.6c0,2.2-1.6,3.9-3.6,3.9s-3.6-1.8-3.6-3.9V152.3z"/>
	
		<linearGradient id="SVGID_00000095316220674215031090000009737508276436582016_" gradientUnits="userSpaceOnUse" x1="136.7213" y1="334.9" x2="187.9737" y2="334.9" gradientTransform="matrix(1 0 0 -1 0 488)">
		<stop  offset="0" style="stop-color:#1D66C7;stop-opacity:0.7"/>
		<stop  offset="0" style="stop-color:#2264C9"/>
		<stop  offset="0.7" style="stop-color:#A726F6"/>
		<stop  offset="1" style="stop-color:#F62681"/>
	</linearGradient>
	<path style="fill:url(#SVGID_00000095316220674215031090000009737508276436582016_);" d="M171.5,159.7c2.9,0,5.4-2.6,5.4-5.8v-1.6
		c0-3.2-2.4-5.8-5.4-5.8s-5.4,2.6-5.4,5.8v1.6C166.1,157.1,168.5,159.7,171.5,159.7z M167.9,152.3c0-2.2,1.6-3.9,3.6-3.9
		s3.6,1.7,3.6,3.9v1.6c0,2.2-1.6,3.9-3.6,3.9s-3.6-1.8-3.6-3.9V152.3z"/>
	
		<linearGradient id="SVGID_00000106145413465633754280000002498279888288689079_" gradientUnits="userSpaceOnUse" x1="136.7213" y1="321.7" x2="187.9737" y2="321.7" gradientTransform="matrix(1 0 0 -1 0 488)">
		<stop  offset="0" style="stop-color:#1D66C7;stop-opacity:0.7"/>
		<stop  offset="0" style="stop-color:#2264C9"/>
		<stop  offset="0.7" style="stop-color:#A726F6"/>
		<stop  offset="1" style="stop-color:#F62681"/>
	</linearGradient>
	<path style="fill:url(#SVGID_00000106145413465633754280000002498279888288689079_);" d="M149.1,172.9c2.9,0,5.3-2.6,5.4-5.8v-1.6
		c0-3.2-2.4-5.8-5.4-5.8s-5.4,2.6-5.4,5.8v1.6C143.7,170.3,146.1,172.9,149.1,172.9z M145.5,165.5c0-2.2,1.6-3.9,3.6-3.9
		s3.5,1.7,3.6,3.9v1.6c0,2.2-1.6,3.9-3.6,3.9s-3.6-1.8-3.6-3.9V165.5z"/>
	
		<linearGradient id="SVGID_00000157295312295912927590000008420205452999661475_" gradientUnits="userSpaceOnUse" x1="136.7213" y1="301.25" x2="187.9737" y2="301.25" gradientTransform="matrix(1 0 0 -1 0 488)">
		<stop  offset="0" style="stop-color:#1D66C7;stop-opacity:0.7"/>
		<stop  offset="0" style="stop-color:#2264C9"/>
		<stop  offset="0.7" style="stop-color:#A726F6"/>
		<stop  offset="1" style="stop-color:#F62681"/>
	</linearGradient>
	<path style="fill:url(#SVGID_00000157295312295912927590000008420205452999661475_);" d="M149.1,175.9c1.5,0,3.5,0.4,5.1,1l0.6-1.8
		c-1.8-0.7-4-1.1-5.7-1.1c-3.9,0-10.8,2.2-10.8,6.6V192c0,2.7,1.9,4.7,4.5,4.7v2.8h1.8v-15.1h-1.8v10.4c-1.6,0-2.7-1.1-2.7-2.8
		v-11.4C140.1,177.7,146,175.9,149.1,175.9z"/>
	
		<linearGradient id="SVGID_00000159462960767520390460000010380848422116949397_" gradientUnits="userSpaceOnUse" x1="136.7213" y1="321.7" x2="187.9737" y2="321.7" gradientTransform="matrix(1 0 0 -1 0 488)">
		<stop  offset="0" style="stop-color:#1D66C7;stop-opacity:0.7"/>
		<stop  offset="0" style="stop-color:#2264C9"/>
		<stop  offset="0.7" style="stop-color:#A726F6"/>
		<stop  offset="1" style="stop-color:#F62681"/>
	</linearGradient>
	<path style="fill:url(#SVGID_00000159462960767520390460000010380848422116949397_);" d="M174.1,165.5v1.6c0,3.2,2.4,5.8,5.4,5.8
		s5.4-2.6,5.4-5.8v-1.6c0-3.2-2.4-5.8-5.4-5.8S174.1,162.3,174.1,165.5z M175.9,165.5c0-2.2,1.6-3.9,3.6-3.9c2.1,0,3.6,1.7,3.6,3.9
		v1.6c0,2.2-1.6,3.9-3.6,3.9s-3.6-1.8-3.6-3.9V165.5z"/>
	
		<linearGradient id="SVGID_00000000182468457548887990000009153634936633982633_" gradientUnits="userSpaceOnUse" x1="136.7213" y1="301.25" x2="187.9737" y2="301.25" gradientTransform="matrix(1 0 0 -1 0 488)">
		<stop  offset="0" style="stop-color:#1D66C7;stop-opacity:0.7"/>
		<stop  offset="0" style="stop-color:#2264C9"/>
		<stop  offset="0.7" style="stop-color:#A726F6"/>
		<stop  offset="1" style="stop-color:#F62681"/>
	</linearGradient>
	<path style="fill:url(#SVGID_00000000182468457548887990000009153634936633982633_);" d="M179.5,174c-1.7,0-3.9,0.4-5.7,1.1
		l0.6,1.8c1.7-0.6,3.6-1,5.1-1c3.1,0,9,1.8,9,4.7V192c0,1.6-1.1,2.8-2.7,2.8v-10.4H184v15.1h1.8v-2.8c2.6,0,4.5-2,4.5-4.7v-11.4
		C190.3,176.2,183.4,174,179.5,174z"/>
</g>
<g>
	<g>
		<circle class="st28" cx="15.5" cy="15.5" r="15.5"/>
		<path class="st29" d="M14.3,16.5c1.3,1.3,2.9,2.7,3.6,2c0.9-0.9,1.4-1.6,3.4,0s0.4,2.7-0.4,3.4c-0.9,0.9-4.7,0-8.3-3.6
			S8,10.9,9.1,10c0.7-0.7,1.6-2.2,3.2-0.4s0.9,2.5,0,3.4C11.6,13.6,13.1,15.2,14.3,16.5z"/>
	</g>
	<g>
		<path class="st30" d="M50.6,6.8h-8c-1.2,0-2.2,1-2.2,2.2v5.7c0,1.2,1,2.2,2.2,2.2H45l0,0l1.6,1.6v-1.6h4c1.2,0,2.2-1,2.2-2.2V9.1
			C52.8,7.8,51.8,6.8,50.6,6.8z"/>
		<path d="M46.6,19c-0.1,0-0.2,0-0.3-0.1l-1.5-1.5h-2.2c-1.4,0-2.6-1.2-2.6-2.6V9.1c0-1.4,1.2-2.6,2.6-2.6h3.7
			c0.2,0,0.4,0.2,0.4,0.4s-0.2,0.4-0.4,0.4h-3.7c-1,0-1.9,0.8-1.9,1.9v5.7c0,1,0.8,1.9,1.9,1.9H45c0.2,0,0.3,0.1,0.3,0.2l0.9,0.9
			v-0.7c0-0.2,0.2-0.4,0.4-0.4h4c1,0,1.9-0.8,1.9-1.9v-2.6c0-0.2,0.2-0.4,0.4-0.4s0.4,0.2,0.4,0.4v2.6c0,1.4-1.2,2.6-2.6,2.6H47v1.3
			c0,0.2-0.1,0.3-0.2,0.3C46.7,19,46.7,19,46.6,19z"/>
		<path class="st31" d="M53.6,0.4h-0.9c-2.8,0-5,2.2-5,5l0,0c0,2.8,2.2,5,5,5h0.9c0.5,0,1-0.1,1.5-0.2l1.5,1.5V9.4
			c1.2-0.9,2-2.4,2-4l0,0C58.6,2.6,56.4,0.4,53.6,0.4z"/>
		<path d="M56.6,12.1c-0.1,0-0.2,0-0.3-0.1L55,10.6c-0.4,0.1-0.9,0.2-1.4,0.2h-0.9c-3,0-5.4-2.4-5.4-5.4S49.7,0,52.7,0h0.9
			c3,0,5.4,2.4,5.4,5.4c0,0.9-0.2,1.7-0.6,2.4c-0.3,0.7-0.8,1.3-1.4,1.7v2.1c0,0.2-0.1,0.3-0.2,0.3C56.7,12.1,56.7,12.1,56.6,12.1z
			 M55.1,9.8c0.1,0,0.2,0,0.3,0.1l0.9,0.9V9.4c0-0.1,0.1-0.2,0.1-0.3c1.2-0.9,1.9-2.2,1.9-3.7c0-2.6-2.1-4.7-4.7-4.7h-0.9
			c-2.6,0-4.7,2.1-4.7,4.7s2.1,4.7,4.7,4.7h0.9C54.1,10.1,54.5,10,55.1,9.8C55,9.8,55,9.8,55.1,9.8z"/>
		<path d="M53.2,6.9c-0.2,0-0.4-0.2-0.4-0.4V5.7c0-0.3,0.2-0.6,0.6-0.7c0.4-0.1,0.7-0.5,0.6-0.9c0-0.4-0.4-0.7-0.8-0.8
			c-0.2,0-0.5,0.1-0.6,0.2c-0.2,0.2-0.3,0.4-0.3,0.6s-0.2,0.4-0.4,0.4s-0.4-0.2-0.4-0.4c0-0.4,0.2-0.9,0.5-1.1
			c0.3-0.3,0.7-0.4,1.2-0.4c0.8,0.1,1.4,0.7,1.5,1.5s-0.4,1.5-1.2,1.6v0.9C53.6,6.8,53.4,6.9,53.2,6.9z"/>
		<path d="M53.2,8.4c-0.1,0-0.2,0-0.3-0.1S52.8,8.1,52.8,8c0-0.1,0-0.2,0.1-0.3c0.1-0.1,0.2-0.1,0.3-0.1s0.2,0,0.3,0.1
			s0.1,0.2,0.1,0.3s0,0.2-0.1,0.3S53.3,8.4,53.2,8.4z"/>
		<path d="M50.2,13.3c-0.1,0-0.2,0-0.3-0.1s-0.1-0.2-0.1-0.3s0-0.2,0.1-0.3s0.2-0.1,0.3-0.1s0.2,0,0.3,0.1s0.1,0.2,0.1,0.3
			s0,0.2-0.1,0.3S50.3,13.3,50.2,13.3z"/>
		<path d="M48.7,13.3h-6.4c-0.2,0-0.4-0.2-0.4-0.4s0.2-0.4,0.4-0.4h6.4c0.2,0,0.4,0.2,0.4,0.4S49,13.3,48.7,13.3z"/>
		<path d="M47.8,11.2h-5.4c-0.2,0-0.4-0.2-0.4-0.4s0.2-0.4,0.4-0.4h5.4c0.2,0,0.4,0.2,0.4,0.4S48,11.2,47.8,11.2z"/>
	</g>
	<g transform="translate(.328 .07)">
		<path class="st29" d="M84.4,24.9c-3.3,0-6.5-1.3-8.8-3.7c-2.4-2.4-3.7-5.5-3.7-8.8s1.3-6.4,3.6-8.8s5.5-3.7,8.8-3.7
			s6.5,1.3,8.8,3.7c2.4,2.4,3.7,5.5,3.7,8.8s-1.3,6.5-3.7,8.8C90.8,23.6,87.7,24.9,84.4,24.9z M84.4,0.4c-3.2,0-6.2,1.2-8.5,3.5
			s-3.5,5.3-3.5,8.5s1.2,6.2,3.5,8.5s5.3,3.5,8.5,3.5s6.2-1.2,8.5-3.5s3.5-5.3,3.5-8.5s-1.2-6.2-3.5-8.5C90.6,1.7,87.6,0.4,84.4,0.4
			z"/>
		<path class="st29" d="M87.5,10h-2.2V8.6c0-0.5,0.4-0.7,0.6-0.7h1.5V5.6h-2.1c-2.3,0-2.9,1.7-2.9,2.9V10h-1.2v2.4h1.3v6.8h2.8v-6.8
			h1.9L87.5,10L87.5,10z"/>
	</g>
	<g transform="translate(.328 .07)">
		<path class="st29" d="M114.4,24.9c-3.3,0-6.5-1.3-8.8-3.7c-2.4-2.4-3.7-5.5-3.7-8.8s1.3-6.5,3.7-8.8s5.5-3.7,8.8-3.7
			s6.5,1.3,8.8,3.7c2.4,2.4,3.7,5.5,3.7,8.8s-1.3,6.5-3.7,8.8C120.8,23.6,117.7,24.9,114.4,24.9z M114.4,0.4c-3.2,0-6.2,1.2-8.5,3.5
			s-3.5,5.3-3.5,8.5s1.2,6.2,3.5,8.5s5.3,3.5,8.5,3.5s6.2-1.2,8.5-3.5s3.5-5.3,3.5-8.5s-1.2-6.2-3.5-8.5
			C120.6,1.7,117.6,0.4,114.4,0.4z"/>
		<g transform="translate(-1012.328 37.93)">
			<path class="st29" d="M1129.7-32.3h0.5c0,0,0,0,0.1,0h0.1c0,0,0,0,0.1,0s0.2,0,0.3,0c0.7,0.1,1.3,0.5,1.7,0.9c0,0,0.1,0.1,0.1,0
				c0.6-0.1,1.1-0.3,1.7-0.6c0.2-0.1,0.3-0.2,0.5-0.2c-0.1,0.4-0.3,0.7-0.6,1.1c-0.3,0.3-0.6,0.6-0.9,0.8c0.7-0.1,1.3-0.3,2-0.5
				c0,0.1-0.1,0.1-0.1,0.1c-0.4,0.6-1,1.2-1.6,1.6l-0.1,0.1c0,0.2,0,0.4,0,0.6c0,0.6-0.1,1.1-0.2,1.6c-0.2,1.1-0.6,2.1-1.2,3.1
				c-0.5,0.9-1.2,1.7-2,2.4c-0.7,0.6-1.5,1.2-2.4,1.5c-0.7,0.3-1.5,0.5-2.3,0.7c-0.3,0-0.6,0.1-0.9,0.1h-0.1h-0.1h-0.1h-0.9
				c0,0,0,0-0.1,0h-0.2l0,0l0,0h-0.1c-0.6,0-1.1-0.1-1.7-0.3c-0.9-0.2-1.7-0.6-2.5-1c-0.1-0.1-0.2-0.1-0.3-0.2
				c1.9,0.2,3.6-0.3,5.1-1.4c-1.8-0.1-2.9-1.3-3.2-2.4c0.5,0.1,1,0.1,1.5-0.1c-0.8-0.2-1.5-0.6-2-1.2s-0.8-1.4-0.8-2.2
				c0.2,0.1,0.5,0.2,0.7,0.3c0.3,0.1,0.5,0.1,0.8,0.1c-1.8-1.3-1.8-3.4-1-4.6c0.2,0.3,0.4,0.5,0.7,0.7c0.6,0.6,1.3,1.2,2.1,1.6
				c1.3,0.7,2.8,1.2,4.3,1.2c0,0,0.1,0,0-0.1c0-0.2-0.1-0.3-0.1-0.5c0-0.7,0.1-1.4,0.5-2.1c0.6-0.9,1.4-1.4,2.5-1.5h0.1L1129.7-32.3
				C1129.6-32.2,1129.7-32.2,1129.7-32.3L1129.7-32.3z"/>
		</g>
	</g>
	<g transform="translate(.328 .07)">
		<path class="st29" d="M144.4,24.9c-3.3,0-6.5-1.3-8.8-3.7c-2.4-2.4-3.7-5.5-3.7-8.8s1.3-6.5,3.7-8.8c2.4-2.4,5.5-3.7,8.8-3.7
			s6.5,1.3,8.8,3.7c2.4,2.4,3.7,5.5,3.7,8.8s-1.3,6.5-3.7,8.8C150.8,23.6,147.7,24.9,144.4,24.9z M144.4,0.4c-3.2,0-6.2,1.2-8.5,3.5
			s-3.5,5.3-3.5,8.5s1.2,6.2,3.5,8.5s5.3,3.5,8.5,3.5s6.2-1.2,8.5-3.5s3.5-5.3,3.5-8.5s-1.2-6.2-3.5-8.5
			C150.6,1.7,147.6,0.4,144.4,0.4z"/>
		<g transform="translate(-.328 -.07)">
			<g>
				<path class="st29" d="M146.7,4.7h-4.9c-2.2,0-4.3,1.5-4.3,3.5s1.5,3.5,3.7,3.5c0.2,0,0.3,0,0.5,0c-0.1,0.3-0.2,0.6-0.2,0.9
					c0,0.5,0.3,1,0.7,1.4c-0.3,0-0.6,0-0.9,0c-2.7,0-4.8,1.7-4.8,3.5s2.3,2.9,5,2.9c3.1,0,4.8-1.8,4.8-3.5c0-1.4-0.4-2.3-1.7-3.2
					c-0.4-0.3-1.3-1.1-1.3-1.5c0-0.5,0.1-0.8,0.9-1.4c0.8-0.6,1.4-1.4,1.4-2.4c0-1.2-0.5-2.7-1.6-2.7h1.8L146.7,4.7L146.7,4.7z
					 M145,16.5c0,0.2,0.1,0.3,0.1,0.5c0,1.4-0.9,2.6-3.6,2.6c-1.9,0-3.2-1.2-3.2-2.6s1.7-2.6,3.6-2.6c0.4,0,0.9,0.1,1.2,0.2
					C144.1,15.2,144.8,15.7,145,16.5z M142,11.1c-1.3,0-2.5-1.4-2.7-3.1s0.6-2.9,1.9-2.9s2.5,1.4,2.7,3
					C144.1,9.8,143.3,11.1,142,11.1L142,11.1z M150.6,10.9V8.6H149v2.3h-2.3v1.6h2.3v2.3h1.6v-2.3h2.3v-1.6
					C152.9,10.9,150.6,10.9,150.6,10.9z"/>
			</g>
		</g>
	</g>
	<g>
		<path class="st29" d="M174.7,0c-6.9,0-12.5,5.6-12.5,12.5S167.8,25,174.7,25s12.5-5.6,12.5-12.5S181.6,0,174.7,0z M183,20.8
			c-2.2,2.2-5.2,3.4-8.3,3.4s-6.1-1.2-8.3-3.4s-3.4-5.2-3.4-8.3s1.2-6.1,3.4-8.3s5.2-3.4,8.3-3.4s6.1,1.2,8.3,3.4s3.4,5.2,3.4,8.3
			S185.2,18.6,183,20.8z"/>
		<path class="st29" d="M170.4,6.6h8.8c0.8,0,1.5,0.7,1.5,1.5v8.8c0,0.8-0.7,1.5-1.5,1.5h-8.8c-0.8,0-1.5-0.7-1.5-1.5V8.1
			C168.8,7.2,169.5,6.6,170.4,6.6z M177.5,7.9c-0.3,0-0.5,0.2-0.5,0.5v1.3c0,0.3,0.2,0.5,0.5,0.5h1.3c0.3,0,0.5-0.2,0.5-0.5V8.4
			c0-0.3-0.3-0.5-0.5-0.5C178.8,7.9,177.5,7.9,177.5,7.9z M179.4,11.6h-1c0.1,0.3,0.2,0.7,0.2,1c0,2-1.6,3.6-3.7,3.6
			c-2,0-3.7-1.6-3.7-3.6c0-0.4,0.1-0.7,0.2-1h-1.3v5c0,0.3,0.2,0.5,0.5,0.5h8.2c0.3,0,0.5-0.2,0.5-0.5v-5H179.4z M174.8,10.2
			c-1.3,0-2.4,1-2.4,2.3s1.1,2.3,2.4,2.3s2.4-1,2.4-2.3S176.1,10.2,174.8,10.2L174.8,10.2z"/>
	</g>
	<g>
		<path class="st29" d="M204.7,0c-6.9,0-12.5,5.6-12.5,12.5S197.8,25,204.7,25s12.5-5.6,12.5-12.5S211.6,0,204.7,0z M213,20.8
			c-2.2,2.2-5.2,3.4-8.3,3.4s-6.1-1.2-8.3-3.4s-3.4-5.2-3.4-8.3s1.2-6.1,3.4-8.3s5.2-3.4,8.3-3.4s6.1,1.2,8.3,3.4s3.4,5.2,3.4,8.3
			S215.2,18.6,213,20.8z"/>
		<g>
			<path id="Triangle" class="st32" d="M203.5,14.7l3.6-1.9l-3.6-1.9C203.5,10.9,203.5,14.7,203.5,14.7z"/>
			<g id="Lozenge">
				<g>
					<path class="st29" d="M211.5,10.3c0,0-0.1-0.9-0.5-1.3c-0.5-0.5-1.1-0.5-1.3-0.6c-1.9-0.1-4.7-0.1-4.7-0.1s-2.8,0-4.7,0.1
						c-0.3,0-0.8,0-1.3,0.6c-0.4,0.4-0.5,1.3-0.5,1.3s-0.3,1.1-0.3,2.2v1c0,1.1,0.1,2.2,0.1,2.2s0.1,0.9,0.5,1.3
						c0.5,0.5,1.2,0.5,1.5,0.6c1.1,0.1,4.6,0.1,4.6,0.1s2.8,0,4.7-0.1c0.3,0,0.8,0,1.3-0.6c0.4-0.4,0.5-1.3,0.5-1.3s0.1-1.1,0.1-2.2
						v-1C211.7,11.4,211.5,10.3,211.5,10.3z M203.5,14.7v-3.8l3.6,1.9L203.5,14.7z"/>
				</g>
			</g>
		</g>
	</g>
	<path class="st32" d="M245.5,15L245.5,15l-16.4,15l-1.6-1.4L242.4,15L227.5,1.4l1.6-1.4L245.5,15L245.5,15z"/>
	<path class="st32" d="M247.5,15l16.4-15l1.6,1.4L250.6,15l14.9,13.6l-1.6,1.4L247.5,15L247.5,15L247.5,15z"/>
	<g>
		<path class="st33" d="M54.2,46.9H40.4V31.4h18.5v10.9"/>
		<path class="st34" d="M42.5,34.9h-2.1v-3.4h18.5v3.4h-13"/>
		<g>
			<path class="st35" d="M43.2,37.6h3.1v2.5h-3.1V37.6z"/>
			<path class="st35" d="M48,37.6h3.1v2.5H48V37.6z"/>
			<path class="st35" d="M52.9,37.6H56v2.5h-3.1V37.6z"/>
			<path class="st35" d="M43.2,41.7h3.1v2.5h-3.1V41.7z"/>
		</g>
		<path class="st36" d="M48,41.7h3.1v2.5H48V41.7z"/>
		<path class="st35" d="M54,44.2h-1.2v-2.5H56v0.5"/>
		<path class="st34" d="M60.6,45.3c0,1.9-1.5,3.4-3.4,3.4s-3.4-1.5-3.4-3.4s1.5-3.4,3.4-3.4C59.1,42,60.6,43.5,60.6,45.3z"/>
		<path d="M46.4,37.2h-3.1c-0.2,0-0.4,0.2-0.4,0.4v2.5c0,0.2,0.2,0.4,0.4,0.4h3.1c0.2,0,0.4-0.2,0.4-0.4v-2.5
			C46.8,37.4,46.6,37.2,46.4,37.2z M45.9,39.7h-2.3V38h2.3V39.7z"/>
		<path d="M51.2,37.2H48c-0.2,0-0.4,0.2-0.4,0.4v2.5c0,0.2,0.2,0.4,0.4,0.4h3.1c0.2,0,0.4-0.2,0.4-0.4v-2.5
			C51.6,37.4,51.4,37.2,51.2,37.2z M50.8,39.7h-2.3V38h2.3V39.7z"/>
		<path d="M52.9,40.5H56c0.2,0,0.4-0.2,0.4-0.4v-2.5c0-0.2-0.2-0.4-0.4-0.4h-3.1c-0.2,0-0.4,0.2-0.4,0.4v2.5
			C52.4,40.3,52.6,40.5,52.9,40.5z M53.3,38h2.3v1.7h-2.3V38z"/>
		<path d="M46.4,41.3h-3.1c-0.2,0-0.4,0.2-0.4,0.4v2.5c0,0.2,0.2,0.4,0.4,0.4h3.1c0.2,0,0.4-0.2,0.4-0.4v-2.5
			C46.8,41.5,46.6,41.3,46.4,41.3z M45.9,43.8h-2.3v-1.7h2.3V43.8z"/>
		<path d="M51.2,41.3H48c-0.2,0-0.4,0.2-0.4,0.4v2.5c0,0.2,0.2,0.4,0.4,0.4h3.1c0.2,0,0.4-0.2,0.4-0.4v-2.5
			C51.6,41.5,51.4,41.3,51.2,41.3z M50.8,43.8h-2.3v-1.7h2.3V43.8z"/>
		<path d="M59.3,31.4c0-0.2-0.2-0.4-0.4-0.4h-3.5v-0.6c0-0.5-0.8-0.5-0.8,0V31h-2.7v-0.6c0-0.5-0.8-0.5-0.8,0V31h-2.7v-0.6
			c0-0.5-0.8-0.5-0.8,0V31h-2.7v-0.6c0-0.5-0.8-0.5-0.8,0V31h-3.5c-0.2,0-0.4,0.2-0.4,0.4v15.5c0,0.2,0.2,0.4,0.4,0.4H54
			c0.7,1.1,1.9,1.8,3.2,1.8c2.1,0,3.8-1.7,3.8-3.8c0-1.3-0.7-2.5-1.7-3.2V31.4z M40.8,46.5V35.3h1.7c0.5,0,0.5-0.8,0-0.8h-1.7v-2.6
			h3v1c0,0.5,0.8,0.5,0.8,0v-1h2.7v1c0,0.5,0.8,0.5,0.8,0v-1H51v1c0,0.5,0.8,0.5,0.8,0v-1h2.7v1c0,0.5,0.8,0.5,0.8,0v-1h3.1v2.6
			H45.9c-0.5,0-0.5,0.8,0,0.8h12.6v6.5c-0.4-0.1-0.8-0.2-1.2-0.2c-0.3,0-0.6,0-0.9,0.1c0-0.2-0.2-0.4-0.4-0.4h-3.1
			c-0.2,0-0.4,0.2-0.4,0.4v2.5c0,0.2,0.2,0.4,0.4,0.4h0.7c0,0.2-0.1,0.5-0.1,0.7c0,0.4,0.1,0.8,0.2,1.1H40.8V46.5z M53.8,43.8h-0.6
			v-1.7h2C54.7,42.5,54.1,43.1,53.8,43.8z M57.3,48.3c-1.6,0-2.9-1.3-2.9-2.9c0-1.6,1.3-2.9,2.9-2.9c1.6,0,2.9,1.3,2.9,2.9
			C60.2,46.9,58.9,48.3,57.3,48.3z"/>
		<path d="M44.2,35.3c0.2,0,0.4-0.2,0.4-0.4s-0.2-0.4-0.4-0.4s-0.4,0.2-0.4,0.4S44,35.3,44.2,35.3z"/>
	</g>
	<g>
		<g>
			<path class="st37" d="M16.3,37.8C14.5,36,12.2,35,9.7,35H9.6H9.5c-2.5,0-4.8,1-6.6,2.8C1,39.6,0,42,0,44.5s1,4.9,2.8,6.7
				S6.9,54,9.4,54h0.1h0.1c2.5,0,4.8-1,6.6-2.8S19,47,19,44.5C19.1,42,18.1,39.6,16.3,37.8z M3.6,38.6c1-1,2.2-1.7,3.6-2.1
				c-0.3,0.3-0.6,0.7-0.9,1.2c-0.3,0.6-0.7,1.2-0.9,1.8H2.8C3.1,39.2,3.3,38.9,3.6,38.6z M2.1,40.6H5c-0.3,1.1-0.5,2.2-0.5,3.4H1.2
				C1.2,42.8,1.6,41.7,2.1,40.6z M2.1,48.5c-0.5-1-0.9-2.2-0.9-3.4h3.3c0,1.2,0.2,2.3,0.5,3.4H2.1z M3.6,50.5
				c-0.3-0.3-0.5-0.6-0.8-0.9h2.6c0.3,0.6,0.6,1.3,0.9,1.8c0.3,0.4,0.6,0.8,0.9,1.2C5.8,52.2,4.6,51.5,3.6,50.5z M9,52.7
				c-0.5-0.3-1.1-0.9-1.7-1.9C7,50.5,6.8,50,6.6,49.6H9V52.7L9,52.7z M9,48.5H6.2c-0.3-1.1-0.5-2.2-0.6-3.4H9V48.5L9,48.5z M9,44
				H5.6c0-1.2,0.2-2.3,0.6-3.4H9V44L9,44z M9,39.5H6.6c0.2-0.4,0.4-0.8,0.6-1.2c0.6-1,1.2-1.6,1.7-1.9L9,39.5L9,39.5z M17,40.6
				c0.5,1,0.9,2.2,0.9,3.4h-3.3c0-1.2-0.2-2.3-0.5-3.4H17z M15.5,38.6c0.3,0.3,0.5,0.6,0.8,0.9h-2.6c-0.3-0.6-0.6-1.3-0.9-1.8
				c-0.3-0.4-0.6-0.8-0.9-1.2C13.3,36.9,14.5,37.6,15.5,38.6z M10.1,36.4c0.5,0.3,1.1,0.9,1.7,1.9c0.2,0.4,0.5,0.8,0.6,1.2h-2.3
				V36.4L10.1,36.4z M10.1,40.6h2.8c0.3,1.1,0.5,2.2,0.6,3.4h-3.3v-3.4H10.1z M13.5,45.1c0,1.2-0.2,2.3-0.6,3.4h-2.8v-3.4H13.5z
				 M10.1,52.7v-3.1h2.3c-0.2,0.4-0.4,0.8-0.6,1.2C11.2,51.8,10.6,52.4,10.1,52.7z M15.5,50.5c-1,1-2.2,1.7-3.6,2.1
				c0.3-0.3,0.6-0.7,0.9-1.2c0.3-0.6,0.7-1.2,0.9-1.8h2.6C16,49.9,15.8,50.2,15.5,50.5z M17,48.5h-2.9c0.3-1.1,0.5-2.2,0.5-3.4h3.3
				C17.9,46.3,17.5,47.4,17,48.5z"/>
		</g>
	</g>
	<g>
		<circle class="st38" cx="16" cy="74.4" r="16"/>
		<path class="st32" d="M21.6,74.4L21.6,74.4l-10.1,9.3l-1-0.9l9.2-8.4L10.5,66l1-0.9L21.6,74.4L21.6,74.4z"/>
	</g>
	<g>
		<circle class="st38" cx="48.5" cy="74.4" r="16"/>
		<path class="st32" d="M42.9,74.4L53,65.1l1,0.9l-9.2,8.4l9.2,8.4l-1,0.9L42.9,74.4L42.9,74.4L42.9,74.4z"/>
	</g>
	<path d="M58.9,44.6L57,46.7c-0.1,0.1-0.1,0.1-0.2,0.1s-0.1,0-0.1-0.1l-1.2-1c-0.1-0.1-0.2-0.3-0.1-0.4c0.1-0.2,0.3-0.2,0.4-0.1
		l1,0.8l1.7-2c0.1-0.1,0.4-0.1,0.4,0C59.1,44.3,59.1,44.4,58.9,44.6z"/>
	<g>
		<g>
			<circle class="st29" cx="298.5" cy="18" r="17.5"/>
			<path class="st39" d="M298.5,36c-9.9,0-18-8.1-18-18s8.1-18,18-18s18,8.1,18,18S308.4,36,298.5,36z M298.5,1c-9.4,0-17,7.6-17,17
				s7.6,17,17,17s17-7.6,17-17S307.9,1,298.5,1z"/>
		</g>
		<path class="st39" d="M302,18L302,18l-6.4,5.8l-0.6-0.5l5.8-5.3l-5.8-5.3l0.6-0.5L302,18L302,18z"/>
	</g>
	<g>
		<g>
			<circle class="st29" cx="338.5" cy="18" r="17.5"/>
			<path class="st39" d="M338.5,36c-9.9,0-18-8.1-18-18s8.1-18,18-18s18,8.1,18,18S348.4,36,338.5,36z M338.5,1c-9.4,0-17,7.6-17,17
				s7.6,17,17,17s17-7.6,17-17S347.9,1,338.5,1z"/>
		</g>
		<path class="st39" d="M335,18l6.4-5.8l0.6,0.5l-5.8,5.3l5.8,5.3l-0.6,0.5L335,18L335,18L335,18z"/>
	</g>
	<g>
		<path class="st40" d="M385.5,8.3L385.5,8.3l-9.1,8.3l-0.9-0.7l8.3-7.6l-8.3-7.6l0.9-0.7L385.5,8.3L385.5,8.3z"/>
	</g>
	<g>
		<path class="st40" d="M395.5,8.3l9.1-8.3l0.9,0.7l-8.3,7.6l8.3,7.6l-0.9,0.7L395.5,8.3L395.5,8.3L395.5,8.3z"/>
	</g>
</g>
<g>
	<g>
		<path class="st29" d="M278,353.6c-0.3-0.3-0.6-0.5-1.1-0.5c-0.3,0-0.7,0.2-1.1,0.5l-1,1c-0.1-0.1-0.2-0.1-0.2-0.1
			c-0.1-0.1-0.2-0.1-0.3-0.2c-1-0.6-1.8-1.4-2.6-2.4c-0.4-0.5-0.6-0.9-0.8-1.3c0.2-0.2,0.5-0.5,0.7-0.7c0.1-0.1,0.2-0.2,0.2-0.2
			c0.6-0.6,0.6-1.5,0-2.2l-0.8-0.9c-0.1-0.1-0.2-0.2-0.3-0.3c-0.2-0.2-0.3-0.4-0.6-0.6c-0.3-0.3-0.6-0.5-1.1-0.5
			c-0.3,0-0.7,0.2-1.1,0.5l0,0l-1.1,1.1c-0.4,0.4-0.6,0.9-0.6,1.5c-0.1,0.9,0.2,1.8,0.4,2.3c0.5,1.4,1.3,2.7,2.4,4
			c1.4,1.7,3.1,2.9,5,3.9c0.7,0.3,1.7,0.7,2.8,0.8c0.1,0,0.1,0,0.2,0c0.7,0,1.3-0.2,1.8-0.7l0,0c0.2-0.2,0.3-0.3,0.5-0.6
			c0.1-0.1,0.3-0.2,0.4-0.4c0.3-0.3,0.5-0.7,0.5-1.1s-0.2-0.7-0.5-1.1L278,353.6z M279.1,356.9L279.1,356.9
			c-0.1,0.1-0.2,0.2-0.3,0.3c-0.2,0.2-0.4,0.4-0.6,0.6c-0.3,0.3-0.7,0.5-1.2,0.5c-0.1,0-0.1,0-0.1,0c-1-0.1-1.8-0.4-2.4-0.7
			c-1.8-0.8-3.3-2.1-4.7-3.6c-1.1-1.3-1.8-2.5-2.2-3.7c-0.3-0.7-0.4-1.4-0.3-2c0.1-0.3,0.2-0.6,0.4-1l1.1-1.1
			c0.2-0.1,0.3-0.2,0.5-0.2s0.3,0.1,0.5,0.2l0,0c0.2,0.2,0.3,0.3,0.5,0.5c0.1,0.1,0.2,0.2,0.3,0.3l0.8,0.8c0.3,0.3,0.3,0.6,0,1
			c-0.1,0.1-0.2,0.2-0.3,0.3c-0.2,0.3-0.5,0.5-0.7,0.7l0,0c-0.3,0.3-0.2,0.5-0.2,0.7l0,0c0.2,0.5,0.5,1.1,1,1.7l0,0
			c0.9,1.1,1.8,1.9,2.8,2.6c0.1,0.1,0.2,0.1,0.3,0.2c0.1,0.1,0.2,0.1,0.3,0.2c0,0,0,0,0.1,0c0.1,0.1,0.2,0.1,0.3,0.1
			c0.2,0,0.4-0.2,0.5-0.2l1.1-1.1c0.1-0.1,0.3-0.2,0.5-0.2s0.3,0.1,0.5,0.2l0,0l1.7,1.7C279.4,356.2,279.4,356.6,279.1,356.9z"/>
		<path class="st29" d="M274.3,347.9c0.8,0.1,1.6,0.5,2.1,1.2c0.6,0.6,1,1.4,1.2,2.1c0.1,0.2,0.2,0.3,0.4,0.3h0.1
			c0.2-0.1,0.3-0.2,0.3-0.5c-0.2-1-0.6-1.9-1.4-2.7c-0.7-0.7-1.6-1.2-2.7-1.4c-0.2-0.1-0.5,0.1-0.5,0.3
			C273.9,347.6,274,347.9,274.3,347.9z"/>
		<path class="st29" d="M281.1,350.9c-0.3-1.7-1.1-3.2-2.2-4.4s-2.7-2-4.4-2.2c-0.2-0.1-0.4,0.1-0.5,0.3c-0.1,0.2,0.1,0.5,0.3,0.5
			c1.5,0.2,2.8,1,3.9,2c1.1,1.1,1.7,2.4,2,3.9c0.1,0.2,0.2,0.3,0.4,0.3h0.1C281,351.4,281.1,351.2,281.1,350.9z"/>
	</g>
</g>
<g>
	<g>
		<g>
			<circle class="st29" cx="303.5" cy="350" r="0.6"/>
			<path class="st29" d="M304.9,345h-0.8v-0.6c0-0.3-0.3-0.6-0.6-0.6s-0.6,0.3-0.6,0.6v0.6h-2.7v-0.6c0-0.3-0.3-0.6-0.6-0.6
				s-0.6,0.3-0.6,0.6v0.6h-2.6v-0.6c0-0.3-0.3-0.6-0.6-0.6s-0.6,0.3-0.6,0.6v0.6h-0.7c-1.3,0-2.3,1.1-2.3,2.3v9.1
				c0,1.3,1.1,2.3,2.3,2.3h4.5c0.3,0,0.6-0.3,0.6-0.6s-0.3-0.6-0.6-0.6h-4.5c-0.6,0-1.2-0.5-1.2-1.2v-9.1c0-0.6,0.5-1.2,1.2-1.2h0.7
				v0.6c0,0.3,0.3,0.6,0.6,0.6s0.6-0.3,0.6-0.6V346h2.6v0.6c0,0.3,0.3,0.6,0.6,0.6s0.6-0.3,0.6-0.6V346h2.7v0.6
				c0,0.3,0.3,0.6,0.6,0.6s0.6-0.3,0.6-0.6V346h0.8c0.6,0,1.2,0.5,1.2,1.2v3.3c0,0.3,0.3,0.6,0.6,0.6s0.6-0.3,0.6-0.6v-3.3
				C307.2,346.1,306.2,345,304.9,345z"/>
			<path class="st29" d="M303.7,351.8c-2,0-3.5,1.6-3.5,3.5s1.6,3.5,3.5,3.5s3.5-1.6,3.5-3.5S305.6,351.8,303.7,351.8z M303.7,357.7
				c-1.3,0-2.4-1.1-2.4-2.4s1.1-2.4,2.4-2.4s2.4,1.1,2.4,2.4S305,357.7,303.7,357.7z"/>
			<path class="st29" d="M304.5,354.7h-0.3v-0.6c0-0.3-0.3-0.6-0.6-0.6s-0.6,0.3-0.6,0.6v1.2c0,0.3,0.3,0.6,0.6,0.6h0.8
				c0.3,0,0.6-0.3,0.6-0.6S304.8,354.7,304.5,354.7z"/>
			<circle class="st29" cx="301" cy="350" r="0.6"/>
			<circle class="st29" cx="298.4" cy="352.5" r="0.6"/>
			<circle class="st29" cx="295.9" cy="350" r="0.6"/>
			<circle class="st29" cx="295.9" cy="352.5" r="0.6"/>
			<circle class="st29" cx="295.9" cy="355.1" r="0.6"/>
			<circle class="st29" cx="298.4" cy="355.1" r="0.6"/>
			<circle class="st29" cx="298.4" cy="350" r="0.6"/>
		</g>
	</g>
</g>
<g>
	<g>
		<path class="st41" d="M338,353.6c-0.3-0.3-0.6-0.5-1.1-0.5c-0.3,0-0.7,0.2-1.1,0.5l-1,1c-0.1-0.1-0.2-0.1-0.2-0.1
			c-0.1-0.1-0.2-0.1-0.3-0.2c-1-0.6-1.8-1.4-2.6-2.4c-0.4-0.5-0.6-0.9-0.8-1.3c0.2-0.2,0.5-0.5,0.7-0.7c0.1-0.1,0.2-0.2,0.2-0.2
			c0.6-0.6,0.6-1.5,0-2.2l-0.8-0.9c-0.1-0.1-0.2-0.2-0.3-0.3c-0.2-0.2-0.3-0.4-0.6-0.6c-0.3-0.3-0.6-0.5-1.1-0.5
			c-0.3,0-0.7,0.2-1.1,0.5l0,0l-1.1,1.1c-0.4,0.4-0.6,0.9-0.6,1.5c-0.1,0.9,0.2,1.8,0.4,2.3c0.5,1.4,1.3,2.7,2.4,4
			c1.4,1.7,3.1,2.9,5,3.9c0.7,0.3,1.7,0.7,2.8,0.8c0.1,0,0.1,0,0.2,0c0.7,0,1.3-0.2,1.8-0.7l0,0c0.2-0.2,0.3-0.3,0.5-0.6
			c0.1-0.1,0.3-0.2,0.4-0.4c0.3-0.3,0.5-0.7,0.5-1.1s-0.2-0.7-0.5-1.1L338,353.6z M339.1,356.9L339.1,356.9
			c-0.1,0.1-0.2,0.2-0.3,0.3c-0.2,0.2-0.4,0.4-0.6,0.6c-0.3,0.3-0.7,0.5-1.2,0.5c-0.1,0-0.1,0-0.1,0c-1-0.1-1.8-0.4-2.4-0.7
			c-1.8-0.8-3.3-2.1-4.7-3.6c-1.1-1.3-1.8-2.5-2.2-3.7c-0.3-0.7-0.4-1.4-0.3-2c0.1-0.3,0.2-0.6,0.4-1l1.1-1.1
			c0.2-0.1,0.3-0.2,0.5-0.2s0.3,0.1,0.5,0.2l0,0c0.2,0.2,0.3,0.3,0.5,0.5c0.1,0.1,0.2,0.2,0.3,0.3l0.8,0.8c0.3,0.3,0.3,0.6,0,1
			c-0.1,0.1-0.2,0.2-0.3,0.3c-0.2,0.3-0.5,0.5-0.7,0.7l0,0c-0.3,0.3-0.2,0.5-0.2,0.7l0,0c0.2,0.5,0.5,1.1,1,1.7l0,0
			c0.9,1.1,1.8,1.9,2.8,2.6c0.1,0.1,0.2,0.1,0.3,0.2c0.1,0.1,0.2,0.1,0.3,0.2c0,0,0,0,0.1,0c0.1,0.1,0.2,0.1,0.3,0.1
			c0.2,0,0.4-0.2,0.5-0.2l1.1-1.1c0.1-0.1,0.3-0.2,0.5-0.2s0.3,0.1,0.5,0.2l0,0l1.7,1.7C339.4,356.2,339.4,356.6,339.1,356.9z"/>
		<path class="st41" d="M334.3,347.9c0.8,0.1,1.6,0.5,2.1,1.2c0.6,0.6,1,1.4,1.2,2.1c0.1,0.2,0.2,0.3,0.4,0.3h0.1
			c0.2-0.1,0.3-0.2,0.3-0.5c-0.2-1-0.6-1.9-1.4-2.7c-0.7-0.7-1.6-1.2-2.7-1.4c-0.2-0.1-0.5,0.1-0.5,0.3
			C333.9,347.6,334,347.9,334.3,347.9z"/>
		<path class="st41" d="M341.1,350.9c-0.3-1.7-1.1-3.2-2.2-4.4s-2.7-2-4.4-2.2c-0.2-0.1-0.4,0.1-0.5,0.3c-0.1,0.2,0.1,0.5,0.3,0.5
			c1.5,0.2,2.8,1,3.9,2c1.1,1.1,1.7,2.4,2,3.9c0.1,0.2,0.2,0.3,0.4,0.3h0.1C341,351.4,341.1,351.2,341.1,350.9z"/>
	</g>
</g>
<g>
	<path class="st29" d="M0,243l9.1-8.3l1.9,0.7L2.7,243l8.3,7.6l-1.9,0.7L0,243L0,243L0,243z"/>
</g>
</svg>
